<svg xmlns="http://www.w3.org/2000/svg" width="22" height="28" viewBox="0 0 22 28">
  <path id="Path_6457" data-name="Path 6457" d="M258.225-316.774A11.013,11.013,0,0,0,255-309a10.889,10.889,0,0,0,2.216,6.6s.3.395.349.452L266-292l8.439-9.953.345-.447v0A10.885,10.885,0,0,0,277-309a11.013,11.013,0,0,0-3.226-7.774A11.013,11.013,0,0,0,266-320h0A11.013,11.013,0,0,0,258.225-316.774ZM266-306.291,262.4-304l.6-4.074-3-2.753,4.2-.507L266-315l1.912,3.667,4.088.506-3,2.753.6,4.074Z" transform="translate(-255 320)" fill="#0f6ef4" fill-rule="evenodd"/>
</svg>
