<svg xmlns="http://www.w3.org/2000/svg" xmlns:xlink="http://www.w3.org/1999/xlink" width="24" height="7" viewBox="0 0 24 7">
  <defs>
    <clipPath id="clip-path">
      <path id="Path_42" data-name="Path 42" d="M295.5-7A1.5,1.5,0,0,0,297-8.5a1.5,1.5,0,0,0-1.5-1.5A1.5,1.5,0,0,0,294-8.5,1.5,1.5,0,0,0,295.5-7Z" transform="translate(-294 9.999)" fill="none" clip-rule="evenodd"/>
    </clipPath>
    <clipPath id="clip-path-2">
      <path id="Path_41" data-name="Path 41" d="M0-2H318V-17H0Z" transform="translate(0 17)" fill="none"/>
    </clipPath>
    <clipPath id="clip-path-3">
      <path id="Path_45" data-name="Path 45" d="M304.5-6A2.5,2.5,0,0,0,307-8.5a2.5,2.5,0,0,0-2.5-2.5A2.5,2.5,0,0,0,302-8.5,2.5,2.5,0,0,0,304.5-6Z" transform="translate(-302 11)" fill="none" clip-rule="evenodd"/>
    </clipPath>
    <clipPath id="clip-path-5">
      <path id="Path_48" data-name="Path 48" d="M314.5-5A3.5,3.5,0,0,0,318-8.5a3.5,3.5,0,0,0-3.5-3.5A3.5,3.5,0,0,0,311-8.5,3.5,3.5,0,0,0,314.5-5Z" transform="translate(-311 12)" fill="none" clip-rule="evenodd"/>
    </clipPath>
  </defs>
  <g id="icon" transform="translate(-294 -8)">
    <g id="Group_65" data-name="Group 65" transform="translate(294 10.001)" clip-path="url(#clip-path)">
      <g id="Group_64" data-name="Group 64" transform="translate(-294 -7.001)" clip-path="url(#clip-path-2)">
        <path id="Path_40" data-name="Path 40" d="M289-15h13V-2H289Z" transform="translate(0 17)" fill="#d7d9f1"/>
      </g>
    </g>
    <g id="Group_67" data-name="Group 67" transform="translate(302 9)" clip-path="url(#clip-path-3)">
      <g id="Group_66" data-name="Group 66" transform="translate(-302 -6)" clip-path="url(#clip-path-2)">
        <path id="Path_43" data-name="Path 43" d="M297-16h15V-1H297Z" transform="translate(0 17)" fill="#d7d9f1"/>
      </g>
    </g>
    <g id="Group_69" data-name="Group 69" transform="translate(311 8)" clip-path="url(#clip-path-5)">
      <g id="Group_68" data-name="Group 68" transform="translate(-311 -5)" clip-path="url(#clip-path-2)">
        <path id="Path_46" data-name="Path 46" d="M306-17h17V0H306Z" transform="translate(0 17)" fill="#d7d9f1"/>
      </g>
    </g>
  </g>
</svg>
