<svg xmlns="http://www.w3.org/2000/svg" width="48.889" height="15.524" viewBox="0 0 48.889 15.524">
  <g id="Group_2804" data-name="Group 2804" transform="translate(-978.746 -239.189)">
    <path id="Path_6276" data-name="Path 6276" d="M1355.02,325.029a2.421,2.421,0,0,0-1.595-.446h-.744a2.14,2.14,0,0,1-.532-.085.424.424,0,0,1-.276-.4.6.6,0,0,1,.212-.446.89.89,0,0,1,.532-.085h2.509V322.35H1352.4a1.716,1.716,0,0,0-1.956,1.7c0,1.808,1.595,1.723,2.85,1.765a.677.677,0,0,1,.489.128.553.553,0,0,1,.169.4.53.53,0,0,1-.169.361.808.808,0,0,1-.532.128h-2.637v1.212h2.637c1.382,0,2.169-.574,2.169-1.786A1.86,1.86,0,0,0,1355.02,325.029Z" transform="translate(-327.789 -73.336)" fill="#00679a"/>
    <path id="Path_6277" data-name="Path 6277" d="M1308.244,324.583h-.744a2.135,2.135,0,0,1-.531-.085.424.424,0,0,1-.277-.4.484.484,0,0,1,.213-.446.887.887,0,0,1,.531-.085h2.509V322.35h-2.722c-1.467,0-1.956.893-1.956,1.7,0,1.808,1.6,1.723,2.85,1.765a.676.676,0,0,1,.489.128.553.553,0,0,1,.17.4.531.531,0,0,1-.17.361.891.891,0,0,1-.532.128h-2.637v1.212h2.637c1.382,0,2.169-.574,2.169-1.786a1.862,1.862,0,0,0-.4-1.234A2.422,2.422,0,0,0,1308.244,324.583Z" transform="translate(-287.945 -73.336)" fill="#00679a"/>
    <path id="Path_6278" data-name="Path 6278" d="M1261.165,328.049h4.551v-1.17H1262.5V325.73h3.147v-1.148H1262.5V323.54h3.211V322.35h-4.551Z" transform="translate(-249.054 -73.336)" fill="#00679a"/>
    <rect id="Rectangle_464" data-name="Rectangle 464" width="1.382" height="5.699" transform="translate(1006.285 239.189)" fill="#00679a"/>
    <path id="Path_6279" data-name="Path 6279" d="M1116.339,243.719h-3.19V242.57h3.147V241.4h-3.147V240.38h3.19v-1.191h-4.572v5.7h4.572Z" transform="translate(-117.305 0)" fill="#00679a"/>
    <path id="Path_6280" data-name="Path 6280" d="M1213.551,323.9a1.3,1.3,0,0,0-.68-1.276,3.571,3.571,0,0,0-1.68-.276h-3.126v5.7h1.383v-2.084h1.467c.489,0,.765.043.978.255a1.876,1.876,0,0,1,.234,1.148v.681h1.361v-1.106a1.776,1.776,0,0,0-.213-1.042,1.417,1.417,0,0,0-.7-.489A1.562,1.562,0,0,0,1213.551,323.9Zm-1.786.808a1.655,1.655,0,0,1-.659.085l-1.659.042v-1.3h1.659a1.27,1.27,0,0,1,.659.106.516.516,0,0,1,.276.489A.686.686,0,0,1,1211.765,324.71Z" transform="translate(-202.227 -73.336)" fill="#00679a"/>
    <path id="Path_6281" data-name="Path 6281" d="M1084.018,322.35h-4.359l-1.765,1.871-1.658-1.871h-5.507v5.7h5.422l1.744-1.871,1.68,1.871h2.637v-1.914h1.722c1.169,0,2.36-.319,2.36-1.914C1086.294,322.669,1085.082,322.35,1084.018,322.35Zm-8.57,4.529h-3.381v-1.149h3.02v-1.148h-3.02v-1.042h3.424L1077,325.2Zm5.422.68-2.105-2.36,2.105-2.233Zm3.147-2.573h-1.807v-1.446h1.807c.489,0,.808.192.808.681A.727.727,0,0,1,1084.018,324.987Z" transform="translate(-81.115 -73.336)" fill="#00679a"/>
    <path id="Path_6282" data-name="Path 6282" d="M1232,244.888h1.595l.532-1.255h2.849l.532,1.255h2.764v-4.274l2.573,4.274h1.956v-5.7h-1.4v3.955l-2.4-3.955h-2.105v5.38l-2.3-5.38h-2.02l-1.957,4.487H1232a1.4,1.4,0,0,1-.936-.277,2.044,2.044,0,0,1-.362-1.361,1.823,1.823,0,0,1,.362-1.3,1.483,1.483,0,0,1,1.063-.319h1.3v-1.233h-1.3a2.784,2.784,0,0,0-2.084.659,3.71,3.71,0,0,0-.043,4.4A2.931,2.931,0,0,0,1232,244.888Zm3.551-4.721.935,2.254h-1.871Z" transform="translate(-220.956)" fill="#00679a"/>
    <path id="Path_6283" data-name="Path 6283" d="M1164.233,240.741a1.379,1.379,0,0,0-.723-1.3,3.165,3.165,0,0,0-1.637-.255h-3.126v5.7h1.34v-2.063h1.467a1.481,1.481,0,0,1,1.021.234,1.835,1.835,0,0,1,.192,1.106v.723h1.4v-1.127a1.465,1.465,0,0,0-.255-1.021,1.67,1.67,0,0,0-.659-.489A1.609,1.609,0,0,0,1164.233,240.741Zm-1.787.766a1.188,1.188,0,0,1-.681.128h-1.68V240.38h1.68a1.709,1.709,0,0,1,.681.085.57.57,0,0,1,.255.532A.514.514,0,0,1,1162.447,241.507Z" transform="translate(-158.735)" fill="#00679a"/>
    <path id="Path_6284" data-name="Path 6284" d="M992.059,240.422v4.466h1.382v-5.7h-2.233l-1.68,3.87-1.786-3.87h-2.19v5.38l-2.339-5.38h-2.02l-2.445,5.7h1.467l.51-1.255H983.6l.51,1.255h2.786v-4.466l2,4.466h1.17Zm-10.845,2,.957-2.254.936,2.254Z" transform="translate(0)" fill="#00679a"/>
  </g>
</svg>
