<svg xmlns="http://www.w3.org/2000/svg" width="18.62" height="21.26" viewBox="0 0 18.62 21.26">
  <path id="Path_6265" data-name="Path 6265" d="M552.464,198.207a9.31,9.31,0,1,0-14.172,7.938,20.118,20.118,0,0,1,3.629,2.893l1.129,1.12.836-.829a20.653,20.653,0,0,1,4.009-3.11A9.3,9.3,0,0,0,552.464,198.207Zm-9.31-1.181a1.283,1.283,0,1,1-1.283,1.283A1.283,1.283,0,0,1,543.154,197.026Zm-5.857,1.283a1.283,1.283,0,1,1,1.282,1.283A1.282,1.282,0,0,1,537.3,198.309Zm10.431,1.283a1.283,1.283,0,1,1,1.283-1.283A1.283,1.283,0,0,1,547.728,199.591Z" transform="translate(-533.844 -188.897)" fill="#5586ff"/>
</svg>
