<svg xmlns="http://www.w3.org/2000/svg" width="20" height="23.812" viewBox="0 0 20 23.812">
  <g id="Group_2797" data-name="Group 2797" transform="translate(-302.684 -215.075)">
    <path id="Path_6262" data-name="Path 6262" d="M322.684,217.72s-3.624-2.645-10-2.645-10,2.645-10,2.645,0,1.719,0,10.841c0,6.662,10,10.326,10,10.326s10-3.665,10-10.326C322.684,219.439,322.684,217.72,322.684,217.72Zm-2.789,14.366a13.065,13.065,0,0,1-3.082,2.89,23.441,23.441,0,0,1-4.127,2.272,23.539,23.539,0,0,1-4.179-2.306,12.962,12.962,0,0,1-3.05-2.878,5.933,5.933,0,0,1-1.252-3.5c0-5.967,0-8.767,0-9.989a13.927,13.927,0,0,1,1.754-.8,19.831,19.831,0,0,1,13.451,0,13.923,13.923,0,0,1,1.754.8c0,1.222,0,4.022,0,9.989A5.945,5.945,0,0,1,319.895,232.086Z" transform="translate(0)" fill="#24c661"/>
    <path id="Path_6263" data-name="Path 6263" d="M396.225,345.862l-7.252,7.5-4.271-4.417,1.68-1.738,2.591,2.679,5.571-5.762Z" transform="translate(-77.779 -122.588)" fill="#24c661"/>
  </g>
</svg>
