<svg xmlns="http://www.w3.org/2000/svg" width="26.34" height="20.035" viewBox="0 0 26.34 20.035">
    <g id="Group_2841" data-name="Group 2841" transform="translate(0 -354.469)">
      <rect id="Rectangle_198" data-name="Rectangle 198" width="26.339" height="20.035" transform="translate(0 354.469)" fill="#fff"/>
      <rect id="Rectangle_199" data-name="Rectangle 199" width="24.975" height="4.957" transform="translate(0.682 355.151)" fill="#003a7f"/>
      <rect id="Rectangle_200" data-name="Rectangle 200" width="24.975" height="7.796" transform="translate(0.682 360.589)" fill="#003a7f"/>
      <rect id="Rectangle_201" data-name="Rectangle 201" width="24.975" height="4.957" transform="translate(0.682 368.866)" fill="#003a7f"/>
      <g id="Group_1767" data-name="Group 1767" transform="translate(1.228 356.375)">
        <rect id="Rectangle_202" data-name="Rectangle 202" width="0.736" height="0.457" transform="translate(20.469 2.546)" fill="#fff"/>
        <rect id="Rectangle_203" data-name="Rectangle 203" width="0.736" height="0.457" transform="translate(19.531 2.546)" fill="#fff"/>
        <path id="Path_5726" data-name="Path 5726" d="M13.945,363.832H13.5v-.645h-.906v.645H6.041l-.08-.17.621-.808v-.578H5.69l-.984,1.28.561,1.2h9.584v-1.567h-.906Z" transform="translate(-4.706 -362.145)" fill="#fff"/>
        <rect id="Rectangle_204" data-name="Rectangle 204" width="0.736" height="0.457" transform="translate(9.346 0.202)" fill="#fff"/>
        <rect id="Rectangle_205" data-name="Rectangle 205" width="0.736" height="0.457" transform="translate(2.448 0.341)" fill="#fff"/>
        <rect id="Rectangle_206" data-name="Rectangle 206" width="0.736" height="0.457" transform="translate(3.403 0.341)" fill="#fff"/>
        <path id="Path_5727" data-name="Path 5727" d="M67.705,362.628H65.026l-.408-.34h2.845l-.3-.518H63.595l-.057.183,1.227,1.023h2.111v.272H64.595l-.774-.645H62.273v1.367H59.726v-.56h2.149V362.6H58.4v2.03H63.19v-1.079l.54.45h4.01l.562-.576v-.187Z" transform="translate(-44.388 -361.771)" fill="#fff"/>
        <rect id="Rectangle_207" data-name="Rectangle 207" width="1.696" height="0.741" transform="translate(11.039 1.293)" fill="#fff"/>
      </g>
      <path id="Path_5728" data-name="Path 5728" d="M35.468,387.262l-4.585-3.449,4.5-2.759H27.319l-3.947,2.417v-2.417H17.745v6.208h5.627V384.03l3.612,3.232Z" transform="translate(-13.114 -19.647)" fill="#ffe800"/>
      <g id="Group_1768" data-name="Group 1768" transform="translate(3.509 369.599)">
        <path id="Path_5729" data-name="Path 5729" d="M13.448,417.133v-3.076h.806v.365a1.123,1.123,0,0,1,.408-.335,1.2,1.2,0,0,1,.524-.112,1.009,1.009,0,0,1,.763.264,1.113,1.113,0,0,1,.253.8v2.1h-.823v-1.859a.774.774,0,0,0-.112-.473.436.436,0,0,0-.364-.141.615.615,0,0,0-.461.174.65.65,0,0,0-.17.474v1.825Z" transform="translate(-13.448 -413.576)" fill="#fff"/>
        <path id="Path_5730" data-name="Path 5730" d="M46.651,415.972h.82a1.314,1.314,0,0,1-.5.763,1.52,1.52,0,0,1-.921.276,1.331,1.331,0,0,1-1.058-.449,1.786,1.786,0,0,1-.39-1.215,1.736,1.736,0,0,1,.385-1.191,1.332,1.332,0,0,1,1.053-.436,1.391,1.391,0,0,1,1.092.429,1.766,1.766,0,0,1,.385,1.221q0,.088,0,.132a.692.692,0,0,1-.007.083H45.452a.879.879,0,0,0,.177.546.576.576,0,0,0,.46.184.657.657,0,0,0,.348-.084A.566.566,0,0,0,46.651,415.972Zm-1.2-.928h1.211a.7.7,0,0,0-.165-.474.582.582,0,0,0-.443-.163.553.553,0,0,0-.423.164A.761.761,0,0,0,45.452,415.044Z" transform="translate(-36.47 -413.388)" fill="#fff"/>
        <path id="Path_5731" data-name="Path 5731" d="M82.288,416.385l-.27.01q-.157.007-.2.007a.905.905,0,0,1-.647-.177,1.018,1.018,0,0,1-.174-.7v-1.664H80.59v-.577H81v-.84h.815v.84h.475v.577h-.475v1.7a.188.188,0,0,0,.054.16.423.423,0,0,0,.221.038h.2Z" transform="translate(-63.068 -412.446)" fill="#fff"/>
      </g>
    </g>
  </svg>
  