<svg xmlns="http://www.w3.org/2000/svg" width="18.621" height="24.207" viewBox="0 0 18.621 24.207">
  <path id="Icon_ionic-ios-lock" data-name="Icon ionic-ios-lock" d="M23.043,11.754h-1.4V9.037a5.586,5.586,0,1,0-11.172-.076v2.793h-1.4A2.334,2.334,0,0,0,6.75,14.082V25.254a2.334,2.334,0,0,0,2.328,2.328H23.043a2.334,2.334,0,0,0,2.328-2.328V14.082A2.334,2.334,0,0,0,23.043,11.754Zm-6.168,7.262v4a.834.834,0,0,1-.774.838.816.816,0,0,1-.855-.815V19.016a1.862,1.862,0,1,1,1.629,0Zm3.142-7.262H12.1V8.961a3.957,3.957,0,0,1,7.914,0Z" transform="translate(-6.75 -3.374)" fill="#5586ff"/>
</svg>
