<svg xmlns="http://www.w3.org/2000/svg" width="20.037" height="15.589" viewBox="0 0 20.037 15.589">
  <g id="Group_2803" data-name="Group 2803" transform="translate(0 0.001)">
    <path id="Path_6271" data-name="Path 6271" d="M122.164,1319.282v.04h.037a.04.04,0,0,0,.02-.005.018.018,0,0,0,.008-.015.017.017,0,0,0-.008-.015.035.035,0,0,0-.02-.005h-.037Zm.038-.028a.07.07,0,0,1,.045.013.043.043,0,0,1,.016.036.041.041,0,0,1-.013.031.063.063,0,0,1-.036.015l.05.057h-.039l-.046-.057h-.015v.057h-.032v-.152h.07Zm-.01.2a.122.122,0,0,0,.049-.01.13.13,0,0,0,.04-.027.125.125,0,0,0,.027-.04.13.13,0,0,0,0-.1.132.132,0,0,0-.027-.04.128.128,0,0,0-.04-.027.126.126,0,0,0-.049-.009.13.13,0,0,0-.05.009.126.126,0,0,0-.068.167.119.119,0,0,0,.027.04.126.126,0,0,0,.041.027.124.124,0,0,0,.05.01m0-.29a.168.168,0,0,1,.118.048.161.161,0,0,1,.035.179.17.17,0,0,1-.035.052.18.18,0,0,1-.053.035.165.165,0,0,1-.065.013.169.169,0,0,1-.066-.013.172.172,0,0,1-.053-.035.169.169,0,0,1-.035-.054.162.162,0,0,1,.035-.179.157.157,0,0,1,.053-.035.162.162,0,0,1,.066-.013m-15.34-.584a.5.5,0,1,1,.5.526.494.494,0,0,1-.5-.526m1.331,0v-.823h-.358v.2a.623.623,0,0,0-.519-.241.864.864,0,0,0,0,1.727.624.624,0,0,0,.519-.241v.2h.357v-.823Zm12.081,0a.5.5,0,1,1,.5.526.494.494,0,0,1-.5-.526m1.332,0V1317.1h-.358v.86a.623.623,0,0,0-.519-.241.864.864,0,0,0,0,1.727.623.623,0,0,0,.519-.241v.2h.358Zm-8.975-.543a.408.408,0,0,1,.416.4h-.853a.423.423,0,0,1,.437-.4m.007-.321a.864.864,0,0,0,.024,1.727,1,1,0,0,0,.674-.231l-.175-.265a.784.784,0,0,1-.478.172.457.457,0,0,1-.492-.4H113.4c0-.044.007-.089.007-.137a.789.789,0,0,0-.781-.863m4.317.863a.5.5,0,1,1,.5.526.493.493,0,0,1-.5-.526m1.331,0v-.822h-.357v.2a.624.624,0,0,0-.519-.241.864.864,0,0,0,0,1.727.624.624,0,0,0,.519-.241v.2h.357v-.823Zm-3.35,0a.831.831,0,0,0,.877.863.859.859,0,0,0,.591-.2l-.172-.289a.723.723,0,0,1-.431.148.527.527,0,0,1,0-1.053.725.725,0,0,1,.431.148l.172-.289a.86.86,0,0,0-.591-.2.831.831,0,0,0-.877.863m4.609-.863a.485.485,0,0,0-.433.241v-.2h-.354v1.644h.358v-.922c0-.272.117-.423.351-.423a.575.575,0,0,1,.224.041l.11-.337a.761.761,0,0,0-.255-.045m-9.584.172a1.229,1.229,0,0,0-.67-.172c-.417,0-.685.2-.685.526,0,.268.2.433.567.485l.169.024c.2.028.289.079.289.172,0,.127-.13.2-.375.2a.877.877,0,0,1-.547-.172l-.168.279a1.186,1.186,0,0,0,.712.214c.475,0,.75-.224.75-.537,0-.289-.217-.44-.574-.492l-.168-.024c-.155-.02-.279-.051-.279-.161s.117-.193.313-.193a1.062,1.062,0,0,1,.513.141l.155-.289Zm4.613-.172a.484.484,0,0,0-.433.241v-.2h-.354v1.644h.358v-.922c0-.272.117-.423.351-.423a.575.575,0,0,1,.224.041l.11-.337a.761.761,0,0,0-.255-.045m-3.051.041h-.585v-.5h-.361v.5h-.333v.327h.333v.75c0,.382.148.609.571.609a.838.838,0,0,0,.447-.127l-.1-.306a.662.662,0,0,1-.317.093c-.179,0-.237-.11-.237-.275v-.743h.585Zm-5.345,1.645v-1.032a.612.612,0,0,0-.647-.654.637.637,0,0,0-.578.292.6.6,0,0,0-.543-.292.544.544,0,0,0-.482.244v-.2h-.358v1.644h.361v-.912a.385.385,0,0,1,.4-.437c.237,0,.358.155.358.433v.915h.361v-.912a.388.388,0,0,1,.4-.437c.244,0,.361.155.361.433v.915Z" transform="translate(-102.523 -1303.906)" fill="#231f20"/>
    <path id="Path_6272" data-name="Path 6272" d="M1929.372,977.46v-.24h-.062l-.073.165-.072-.165h-.063v.24h.044v-.181l.068.156h.046l.068-.157v.182h.044Zm-.4,0v-.2h.08v-.041h-.2v.041h.08v.2h.044Z" transform="translate(-1909.527 -967.431)" fill="#f79410"/>
    <path id="Path_6273" data-name="Path 6273" d="M735.128,141.887H729.71V132.15h5.418Z" transform="translate(-722.4 -130.827)" fill="#ff5f00"/>
    <path id="Path_6274" data-name="Path 6274" d="M7.654,6.192a6.183,6.183,0,0,1,2.365-4.869,6.193,6.193,0,1,0,0,9.737A6.182,6.182,0,0,1,7.654,6.192" transform="translate(0 0)" fill="#eb001b"/>
    <path id="Path_6275" data-name="Path 6275" d="M1010.129,6.192a6.192,6.192,0,0,1-10.019,4.869,6.193,6.193,0,0,0,0-9.737,6.192,6.192,0,0,1,10.019,4.869" transform="translate(-990.091 0)" fill="#f79e1b"/>
  </g>
</svg>
