<svg xmlns="http://www.w3.org/2000/svg" width="21.586" height="15.11" viewBox="0 0 21.586 15.11">
    <path id="Icon_awesome-car-side" data-name="Icon awesome-car-side" d="M18.348,7.647h-.54L14.14,3.06a2.159,2.159,0,0,0-1.686-.81H5.239a2.158,2.158,0,0,0-2,1.357L1.619,7.723A2.154,2.154,0,0,0,0,9.805v3.778a.54.54,0,0,0,.54.54H2.159a3.238,3.238,0,0,0,6.476,0h4.317a3.238,3.238,0,0,0,6.476,0h1.619a.54.54,0,0,0,.54-.54v-2.7A3.238,3.238,0,0,0,18.348,7.647ZM5.4,15.741a1.619,1.619,0,1,1,1.619-1.619A1.621,1.621,0,0,1,5.4,15.741ZM7.825,7.647H3.944l1.3-3.238H7.825Zm1.619,0V4.409h3.01l2.59,3.238Zm6.746,8.095a1.619,1.619,0,1,1,1.619-1.619A1.621,1.621,0,0,1,16.19,15.741Z" transform="translate(0 -2.25)" fill="#424753"/>
  </svg>
  