<svg xmlns="http://www.w3.org/2000/svg" width="23" height="23" viewBox="0 0 23 23">
  <circle id="Ellipse_11553" data-name="Ellipse 11553" cx="11.5" cy="11.5" r="11.5" fill="#fff"/>
  <g id="Group_1694" data-name="Group 1694" transform="translate(4.808 11.57) rotate(-45)" style="isolation: isolate">
    <path id="Path_5698" data-name="Path 5698" d="M.5,5.59a.454.454,0,0,1-.5-.5v-.64a.454.454,0,0,1,.5-.5h3.32V.5a.455.455,0,0,1,.5-.5h.9a.454.454,0,0,1,.5.5V3.941H9.057a.455.455,0,0,1,.5.5v.64a.455.455,0,0,1-.5.5H5.736V9.038a.454.454,0,0,1-.5.5h-.9a.455.455,0,0,1-.5-.5V5.59Z" fill="#424753"/>
  </g>
</svg>
