<svg xmlns="http://www.w3.org/2000/svg" width="23.096" height="23.096" viewBox="0 0 23.096 23.096">
  <g id="Group_3181" data-name="Group 3181" transform="translate(-579.75 -84.75)">
    <path id="Path_5805" data-name="Path 5805" d="M602.683,92.449H580.911a11.041,11.041,0,0,1,1.4-2.733,11.544,11.544,0,0,1,20.371,2.733Z" transform="translate(-0.499)" fill="#007a3d"/>
    <path id="Path_5806" data-name="Path 5806" d="M602.846,102.1a11.422,11.422,0,0,1-.662,3.849H580.412a11.521,11.521,0,0,1,0-7.7h21.772A11.422,11.422,0,0,1,602.846,102.1Z" transform="translate(0 -5.801)" fill="#fff"/>
    <path id="Path_5807" data-name="Path 5807" d="M602.683,111.75a11.544,11.544,0,0,1-20.371,2.733,11.05,11.05,0,0,1-1.4-2.733Z" transform="translate(-0.499 -11.603)" fill="#ce1126"/>
    <path id="Path_5808" data-name="Path 5808" d="M585.909,96.191v7.7l-4.1,2.733a11.051,11.051,0,0,1-1.4-2.733,11.521,11.521,0,0,1,0-7.7,11.041,11.041,0,0,1,1.4-2.733Z" transform="translate(0 -3.742)"/>
  </g>
</svg>
