<svg id="Group_471" data-name="Group 471" xmlns="http://www.w3.org/2000/svg" width="41.666" height="41.666" viewBox="0 0 41.666 41.666">
  <path id="Path_3084" data-name="Path 3084" d="M-521.366,225.4A20.833,20.833,0,0,1-542.2,246.231,20.833,20.833,0,0,1-563.032,225.4,20.833,20.833,0,0,1-542.2,204.565,20.833,20.833,0,0,1-521.366,225.4" transform="translate(563.032 -204.565)" fill="#f7f7f7"/>
  <g id="Group_470" data-name="Group 470" transform="translate(10.252 6.197)">
    <path id="Path_3012" data-name="Path 3012" d="M289.17,405.955c-.347.329-.684.635-1.006.956a5.418,5.418,0,0,0-1.6,2.806,5.886,5.886,0,0,0,2.157,5.992,3.429,3.429,0,0,0,1.2.619c-.074.214-.139.425-.219.63a15.289,15.289,0,0,1-2.879,4.763,6.732,6.732,0,0,1-.7.649,3.178,3.178,0,0,1-3.121.662c-.609-.186-1.212-.391-1.822-.571a4.978,4.978,0,0,0-2.035-.232,7.952,7.952,0,0,0-1.776.5,12.817,12.817,0,0,1-1.414.442,2.805,2.805,0,0,1-1.984-.288,5.354,5.354,0,0,1-1.439-1.126,13.379,13.379,0,0,1-1.879-2.675,16.687,16.687,0,0,1-1.912-5.006,11.86,11.86,0,0,1,.229-5.91,7.006,7.006,0,0,1,2.442-3.575,5.206,5.206,0,0,1,3.7-1.011,16.083,16.083,0,0,1,2.884.629c.331.089.668.161,1,.231a3.341,3.341,0,0,0,1.628-.167c.665-.191,1.32-.42,1.988-.6a6.013,6.013,0,0,1,4.011.227,6.41,6.41,0,0,1,2.3,1.77C289.009,405.762,289.089,405.859,289.17,405.955Z" transform="translate(-268.473 -397.659)"/>
    <path id="Path_3013" data-name="Path 3013" d="M295,395.1c.074-3.364,1.795-5.569,5.045-6.211a3.2,3.2,0,0,1,.066.41,5.807,5.807,0,0,1-1.036,3.44,6.545,6.545,0,0,1-1.2,1.339,3.823,3.823,0,0,1-2.247.956C295.417,395.051,295.213,395.077,295,395.1Z" transform="translate(-284.467 -388.89)"/>
  </g>
</svg>
