<svg xmlns="http://www.w3.org/2000/svg" width="504" height="333.568" viewBox="0 0 504 333.568">
  <g id="Group_12" data-name="Group 12" transform="translate(-7374.797 -137.981)">
    <g id="Group_1" data-name="Group 1" transform="translate(7374.797 137.981)">
      <rect id="Rectangle_2" data-name="Rectangle 2" width="76.689" height="188.819" rx="4.857" transform="translate(216.713 12.882)" fill="#f0f0f0"/>
      <rect id="Rectangle_3" data-name="Rectangle 3" width="58.081" height="123.096" transform="translate(283.883 78.604)" fill="#f0f0f0"/>
      <rect id="Rectangle_4" data-name="Rectangle 4" width="46.735" height="109.875" transform="translate(190.844 91.826)" fill="#f0f0f0"/>
      <rect id="Rectangle_5" data-name="Rectangle 5" width="74.419" height="142.377" rx="4" transform="translate(125.489 59.324)" fill="#f0f0f0"/>
      <rect id="Rectangle_6" data-name="Rectangle 6" width="72.15" height="75.655" rx="3.392" transform="translate(38.199 126.046)" fill="#f0f0f0"/>
      <rect id="Rectangle_7" data-name="Rectangle 7" width="54.072" height="44.545" rx="2.553" transform="translate(0 157.155)" fill="#f0f0f0"/>
      <rect id="Rectangle_8" data-name="Rectangle 8" width="45.397" height="18.645" rx="3.062" transform="translate(140.001 50.171)" fill="#f0f0f0"/>
      <rect id="Rectangle_9" data-name="Rectangle 9" width="80.785" height="55.433" rx="4.453" transform="translate(423.215 146.267)" fill="#f0f0f0"/>
      <rect id="Rectangle_10" data-name="Rectangle 10" width="19.062" height="45.086" rx="4" transform="translate(443.184 124.071)" fill="#f0f0f0"/>
      <rect id="Rectangle_11" data-name="Rectangle 11" width="16.717" height="36.159" rx="2" transform="translate(63.388 100.85)" fill="#f0f0f0"/>
      <rect id="Rectangle_12" data-name="Rectangle 12" width="16.565" height="17.185" rx="2.099" transform="translate(86.458 119.824)" fill="#f0f0f0"/>
      <rect id="Rectangle_13" data-name="Rectangle 13" width="11.119" height="19.123" rx="2.757" transform="translate(44.25 117.491)" fill="#f0f0f0"/>
      <rect id="Rectangle_14" data-name="Rectangle 14" width="16.339" height="32.223" rx="2.857" transform="translate(474.499 136.934)" fill="#f0f0f0"/>
      <path id="Path_1" data-name="Path 1" d="M8388.521,249.37V385.811c0,.52-.564.941-1.261.941h-66.465c-.7,0-1.26-.422-1.26-.941V210.6c0-.784,1.209-1.225,2.036-.742l66.464,38.775A.882.882,0,0,1,8388.521,249.37Z" transform="translate(-7995.26 -185.052)" fill="#f0f0f0"/>
      <path id="Path_2" data-name="Path 2" d="M8482.17,395.787v94.329c0,.469.51.85,1.138.85h46.287c.628,0,1.138-.38,1.138-.85V369.183c0-.705-1.084-1.1-1.832-.673l-46.286,26.6A.8.8,0,0,0,8482.17,395.787Z" transform="translate(-8102.071 -289.266)" fill="#f0f0f0"/>
      <path id="Path_3" data-name="Path 3" d="M7651.806,394.3v95.228c0,.137.148.247.331.247h47.9c.183,0,.331-.111.331-.247V366.774c0-.206-.315-.322-.533-.2l-47.9,27.531A.233.233,0,0,0,7651.806,394.3Z" transform="translate(-7556.724 -288.079)" fill="#f0f0f0"/>
      <rect id="Rectangle_15" data-name="Rectangle 15" width="37.941" height="19.662" rx="3.372" transform="translate(236.087 0)" fill="#f0f0f0"/>
      <path id="Path_4" data-name="Path 4" d="M7816.006,216.987l11.008-38.91a.276.276,0,0,1,.49,0l11.009,38.91c.032.116-.086.226-.245.226H7816.25C7816.092,217.213,7815.973,217.1,7816.006,216.987Z" transform="translate(-7664.56 -164.217)" fill="#f0f0f0"/>
    </g>
    <ellipse id="Ellipse_1" data-name="Ellipse 1" cx="43.245" cy="10.826" rx="43.245" ry="10.826" transform="translate(7500.34 369.524)" fill="#ededed"/>
    <path id="Path_5" data-name="Path 5" d="M8064.558,766.356s-44.147,9.458-45.412,8.832-4.838-9.464-19.134-18.5-21.024-20.814-22.284-26.495,4.205-51.3,2.946-55.081c-.387-1.163-3.573-6.273-7.607-12.917-2.239-3.7-4.746-7.874-7.179-12.108-7.43-12.923-14.165-26.4-10.655-28.592,3.869-2.416,9.612,2.256,13.8,6.666a68.753,68.753,0,0,1,5.333,6.37s1.914,3.293,4.951,8.524c11.105,19.139,37.172,64.226,38.99,68.847C8020.616,717.788,8064.558,766.356,8064.558,766.356Z" transform="translate(-380.577 -317.117)" fill="#f7d2b7"/>
    <path id="Path_6" data-name="Path 6" d="M8029.584,908.855c7.6,8.262,37.238,10.452,41.036,8.363s-.771-11.4,2.362-18.239S8029.584,908.855,8029.584,908.855Z" transform="translate(-430.035 -498.711)" fill="#e6e6e6" style="mix-blend-mode: multiply;isolation: isolate"/>
    <path id="Path_7" data-name="Path 7" d="M7994.631,676.212c-2.239-3.7-4.746-7.874-7.179-12.108-.883-7.635-.131-16.632,3.146-21.925a68.743,68.743,0,0,1,5.333,6.37s1.914,3.293,4.951,8.524C8001.634,663.027,7998.17,673.369,7994.631,676.212Z" transform="translate(-402.141 -331.135)" fill="#e6e6e6" style="mix-blend-mode: multiply;isolation: isolate"/>
    <path id="Path_8" data-name="Path 8" d="M8066.894,576.886V687.429a8.249,8.249,0,0,1-8.228,8.228h-57.725a4.36,4.36,0,0,1-4.336-4.336V576.886a8.253,8.253,0,0,1,8.228-8.228h53.833a8.229,8.229,0,0,1,6.878,3.726A8.144,8.144,0,0,1,8066.894,576.886Z" transform="translate(-408.376 -282.85)" fill="#015da6"/>
    <path id="Path_9" data-name="Path 9" d="M8007.854,698.954a.687.687,0,0,1-.4-.129.738.738,0,0,1-.319-.594V583.794a4.62,4.62,0,0,1,4.615-4.615h53.834a4.621,4.621,0,0,1,4.616,4.615V694.339a4.621,4.621,0,0,1-4.616,4.615Z" transform="translate(-415.29 -289.759)" fill="#d6eeff"/>
    <path id="Path_10" data-name="Path 10" d="M8172.284,791.693c0,15.766,2.21,38.791-8.04,49.514-9.738,10.182-23.652-5.681-25.15-12.695a5.4,5.4,0,0,1-.131-1.026c-.245-9.686,3.789-16.364,8.244-21.555,4.416-5.139,9.237-8.82,10.729-12.507,3-7.413,1.732-14.347,8.512-23.965s14.194-8.832,14.194-7.1S8172.284,775.921,8172.284,791.693Z" transform="translate(-501.864 -409.363)" fill="#f7d2b7"/>
    <path id="Path_11" data-name="Path 11" d="M8065.544,572.384l-2.263,6.176-41.52,113.484-1.316,3.612h-19.5a4.36,4.36,0,0,1-4.336-4.336V671.811l3.612-9.875,32.8-89.667,1.322-3.612h24.324A8.229,8.229,0,0,1,8065.544,572.384Z" transform="translate(-408.376 -282.85)" fill="#fff" opacity="0.3"/>
    <path id="Path_12" data-name="Path 12" d="M7980.515,857.6c-12.011-1.629-17.361-17.629-12.552-20.273a.11.11,0,0,1,.034-.023,3,3,0,0,1,.958-.307,131.178,131.178,0,0,1,11.185,11.709c.775.951,1.487,1.892,2.091,2.78C7984.834,855.331,7985.443,858.266,7980.515,857.6Z" transform="translate(-388.412 -459.082)" fill="#f7d2b7"/>
    <path id="Path_13" data-name="Path 13" d="M7987.637,848.277a23.313,23.313,0,0,1-4.085-1.447c.775.951,1.487,1.892,2.091,2.78-7.567-.849-13.886-10.125-14.228-14.085v-.005a.51.51,0,0,0-.006-.091,1.927,1.927,0,0,1,.279-1.287s15.509,10.564,16.524,14.267C7988.024,848.374,7987.836,848.329,7987.637,848.277Z" transform="translate(-391.825 -457.207)" fill="#e6e6e6" style="mix-blend-mode: multiply;isolation: isolate"/>
    <path id="Path_14" data-name="Path 14" d="M7981.308,812.867c-.188-.034-.376-.08-.576-.131a23.3,23.3,0,0,1-4.085-1.447,28.062,28.062,0,0,1-12.136-11.3v-.005c-.011-.023-.028-.046-.04-.068-4.519-7.732-5.02-16.512-.017-19.618.154-.1.308-.182.473-.268,0,0,11.857,13.293,17.663,23.019C7986.362,809.369,7987.576,814.189,7981.308,812.867Z" transform="translate(-384.92 -421.666)" fill="#f7d2b7"/>
    <path id="Path_15" data-name="Path 15" d="M7989.393,803.044c-13.663-3.835-18.381-17.823-18.136-22.752.154-.1.308-.182.473-.268C7971.729,780.025,7983.586,793.318,7989.393,803.044Z" transform="translate(-391.723 -421.666)" fill="#e6e6e6" style="mix-blend-mode: multiply;isolation: isolate"/>
    <path id="Path_16" data-name="Path 16" d="M7963.016,739.357c-2.5,12.691,14.114,33.79,25.416,34.339,11.224.546-4.621-22.332-10.451-28.042S7963.935,734.685,7963.016,739.357Z" transform="translate(-386.151 -393.776)" fill="#f7d2b7"/>
    <path id="Path_17" data-name="Path 17" d="M8123.974,1030.673c1.735-1.734,52.036-10.092,52.982-9.146s3,7.254,3,8.988S8123.974,1030.673,8123.974,1030.673Z" transform="translate(-492.027 -580.226)" fill="#f7f5ff"/>
    <path id="Path_18" data-name="Path 18" d="M8116.193,1043.868c3.3-.236,59.29-2.207,60.867-1.419s15.137,18.134,14.665,19.71-69.224,4.888-70.328,2.365S8113.985,1044.026,8116.193,1043.868Z" transform="translate(-486.611 -593.893)" fill="#25144f"/>
    <ellipse id="Ellipse_2" data-name="Ellipse 2" cx="75.781" cy="21.206" rx="75.781" ry="21.206" transform="translate(7441.624 410.904)" fill="#ededed"/>
    <path id="Path_19" data-name="Path 19" d="M7692.674,794.626c-1.333-.81-5.136-5.472-4.941-7.816s7.058-5.516,7.711-5.254,2.667,7.79,2.222,8.7S7692.674,794.626,7692.674,794.626Z" transform="translate(-205.518 -422.662)" fill="#25144f"/>
    <path id="Path_20" data-name="Path 20" d="M7698.106,812.449c-.125.636-.3,1.381-.5,2.275a26.653,26.653,0,0,0-.51,3.062c-.192,1.907-.059,3.028-.117,3.371-.075.494-7.478-.711-7.737-2.091s3.4-6.09,4.366-7.453a9.062,9.062,0,0,1,.829-.862,4.994,4.994,0,0,1,2.033-1.246,1.831,1.831,0,0,1,.669-.058C7698.382,809.588,7698.5,810.375,7698.106,812.449Z" transform="translate(-206.503 -440.982)" fill="#dba179"/>
    <path id="Path_21" data-name="Path 21" d="M7708.071,812.579c-.125.636-.3,1.38-.5,2.275a26.651,26.651,0,0,0-.51,3.062,5.227,5.227,0,0,1-2.468-5.538,1.93,1.93,0,0,0-.192-1.5,4.994,4.994,0,0,1,2.033-1.246C7706.808,810.187,7707.31,811.191,7708.071,812.579Z" transform="translate(-216.468 -441.113)" fill="#e6e6e6" style="mix-blend-mode: multiply;isolation: isolate"/>
    <path id="Path_22" data-name="Path 22" d="M7716.778,793.811c-.384,13.593-3.749,13.172-4.357,13.07-1.172-.2-5.263-1.5-5.96-3.485s4.531-9.759,4.6-9.864S7716.778,793.811,7716.778,793.811Z" transform="translate(-217.781 -430.525)" fill="#f4b387"/>
    <path id="Path_23" data-name="Path 23" d="M7708.552,802.283c-1.133-2.6-2.945-2.248-3.538-1.272a2.705,2.705,0,0,0,2.213,4.148C7709.7,805.315,7708.552,802.283,7708.552,802.283Z" transform="translate(-216.612 -434.972)" fill="#f4b387"/>
    <path id="Path_24" data-name="Path 24" d="M7760.94,934.32c-.092-.142-.469-.678-.912-1.213a3.453,3.453,0,0,0-1.364-1.138,3.515,3.515,0,0,0-1.556.36,4.207,4.207,0,0,1-1.765.427,34.541,34.541,0,0,1-4.342-1.121c-.134-.042-.251-.092-.368-.134a2.126,2.126,0,0,1-.8-.443.121.121,0,0,1-.017-.05.327.327,0,0,1,.066-.31c0-.009,0-.009.009-.017s.008-.017.017-.025c.176.025.359.067.561.1a1.165,1.165,0,0,0-.234-.452,11.221,11.221,0,0,1,1.69-1.138c.317.151.56.285.785.377a2.205,2.205,0,0,0,1.908-.034c1.38-.469,4.517-1.623,5.12-1.33.527.251,3.5,4.919,4.567,6.157q.25.288.351.3C7765.122,934.663,7761.124,934.6,7760.94,934.32Z" transform="translate(-246.283 -518.937)" fill="#e0a47c"/>
    <path id="Path_25" data-name="Path 25" d="M7711.491,780.1l.083.741a16.854,16.854,0,0,1,4.94-1.867,9.55,9.55,0,0,1,2.771-.131,16.881,16.881,0,0,0,1.019-5.307,17.825,17.825,0,0,0-.382-4.2c-.1-.151-9.708,4.2-9.708,4.2Z" transform="translate(-220.287 -414.638)" fill="#25144f"/>
    <path id="Path_26" data-name="Path 26" d="M7687.747,777.365c.571-5.635,8.888-8.671,11.171-9.454,1.22-.418,6.031-1.534,6.293.148s-6.319,2.19-11.4,4.906A32.314,32.314,0,0,0,7687.747,777.365Z" transform="translate(-205.532 -413.217)" fill="#3a2278"/>
    <path id="Path_27" data-name="Path 27" d="M7785.3,994.464c-5.22,3.463-18.168,5.12-22.911,2.167a4.638,4.638,0,0,1-.854-.669,1.333,1.333,0,0,1-.109-.117c-1.255-1.4.159-2.526,2.426-3.38a52,52,0,0,1,10.021-2.15,31.426,31.426,0,0,1,7.671-.8C7786.925,989.7,7789.292,991.821,7785.3,994.464Z" transform="translate(-253.614 -559.239)" fill="#071b4d"/>
    <path id="Path_28" data-name="Path 28" d="M7749.932,932.284l-.326.352c.176.025.359.067.561.1a1.165,1.165,0,0,0-.234-.452,11.224,11.224,0,0,1,1.69-1.138c.317.151.56.285.785.377a4.859,4.859,0,0,1-.627,1.556,1.076,1.076,0,0,1-.552.527,2.242,2.242,0,0,1-.887-.059,1.519,1.519,0,0,1-.845-.485.754.754,0,0,1-.159-.469c.083.009.167.025.251.042Z" transform="translate(-245.982 -520.916)" fill="#e6e6e6" style="mix-blend-mode: multiply;isolation: isolate"/>
    <path id="Path_29" data-name="Path 29" d="M7716.241,904.96c2.126,2.265,12.792,8.992,12.722,9.306s-1.29,2.091-2.335,2.161-11.955,1.115-12.617-.941S7716.241,904.96,7716.241,904.96Z" transform="translate(-222.716 -503.718)" fill="#9893eb"/>
    <path id="Path_30" data-name="Path 30" d="M7678.866,881.141c-.285,1.322-7.085,8.014-11.076,9.336a2.518,2.518,0,0,1-2.1,0c-2.091-1.322-4.625-8.658-6.541-18.713-.711-3.714-1.339-7.8-1.823-12.1-1.815-15.894,5.855-24.192,8.917-25.513,2.509-1.087,6.726-.686,9.971,2.443,1.815,1.74,3.2,5.086,3.555,8.365S7679.209,879.535,7678.866,881.141Z" transform="translate(-185.373 -456.858)" fill="#a49fff"/>
    <path id="Path_31" data-name="Path 31" d="M7671.8,963.482a2.517,2.517,0,0,1-2.1,0c-2.091-1.322-4.625-8.658-6.541-18.713,2.668,5.186,5.069,13.183,6.449,13,1.573-.209,6.951-3.346,8.524-2.978C7679.518,955.108,7674.925,961.557,7671.8,963.482Z" transform="translate(-189.387 -529.863)" fill="#e6e6e6" style="mix-blend-mode: multiply;isolation: isolate"/>
    <path id="Path_32" data-name="Path 32" d="M7781.645,989.512c.033,5.027-14.2,7.144-19.156,7.119a6.092,6.092,0,0,1-1.38-.109s.151-.251.418-.678a38.359,38.359,0,0,1,2.426-3.38,52,52,0,0,1,10.021-2.15A31.419,31.419,0,0,1,7781.645,989.512Z" transform="translate(-253.712 -559.239)" fill="#e6e6e6" style="mix-blend-mode: multiply;isolation: isolate"/>
    <path id="Path_33" data-name="Path 33" d="M7694.728,957.967c-13.352,3.587-15.789,10.352-11.815,14.43s16.05,3.607,24.624.68,25.775-10.195,28.023-14.377,0-6.431-4.078-6.692S7698.23,957.026,7694.728,957.967Z" transform="translate(-201.22 -534.61)" fill="#173b9e"/>
    <path id="Path_34" data-name="Path 34" d="M7759.035,939.767c.05.343-4.216,2.434-8.215,2.041a17.633,17.633,0,0,1-6.633-2.116,5.546,5.546,0,0,0-1.505.092c-.326.05-.687.1-1.046.159a13.513,13.513,0,0,1-3.254.376c-.184-.293,3.371-5.128,3.371-5.128.117.017.242.034.385.059.083.008.167.025.251.042h.017c.176.025.359.067.561.1h.009c.468.092,1.012.209,1.605.343,1.464.326,3.229.77,5.027,1.229.979.259,1.966.519,2.92.778,1.622.443,3.128.878,4.274,1.23A11.039,11.039,0,0,1,7759.035,939.767Z" transform="translate(-238.782 -523.572)" fill="#f4b387"/>
    <path id="Path_35" data-name="Path 35" d="M7748.921,939.912q-.327.05-.678.1c-.117.017-.242.042-.368.059a35.212,35.212,0,0,1,.661-4.224.246.246,0,0,0,.017-.075c.024-.109.05-.218.066-.31,0-.009,0-.009.009-.017v-.025l.033-.034.008.009-.025.025a.078.078,0,0,1,.042.008c.159.025.334.059.519.092h.009a3.63,3.63,0,0,1,.158.745c0,.025.009.042.009.067A9.761,9.761,0,0,1,7748.921,939.912Z" transform="translate(-245.021 -523.701)" fill="#e6e6e6" style="mix-blend-mode: multiply;isolation: isolate"/>
    <path id="Path_36" data-name="Path 36" d="M7700.016,881.26a.554.554,0,0,1-.042.092c-.26.418-16.839,3.764-20.963,1.255s-5.077-14.321-4.341-23.631,3.7-14.572,8.942-12.656c3.137,1.154,4.341,6.542,3.237,11.87s-3.714,16.68-2.978,16.788,15.375.937,16.361,1.456a.493.493,0,0,1,.2.192s.008,0,0,.008l.008.009a.033.033,0,0,1,.017.033C7701.011,877.638,7700.3,880.607,7700.016,881.26Z" transform="translate(-196.793 -464.949)" fill="#b7b3ff"/>
    <path id="Path_37" data-name="Path 37" d="M7790.813,947.82l-21.57,2.6a.533.533,0,0,0-.466.594h0a.533.533,0,0,0,.594.466l21.571-2.6a.534.534,0,0,0,.466-.594h0A.534.534,0,0,0,7790.813,947.82Z" transform="translate(-258.747 -531.864)"/>
    <path id="Path_38" data-name="Path 38" d="M7842.177,892.563l-10.453,19.047a.534.534,0,0,0,.211.725h0a.534.534,0,0,0,.725-.211l10.452-19.047a.533.533,0,0,0-.211-.725h0A.533.533,0,0,0,7842.177,892.563Z" transform="translate(-300.046 -495.394)"/>
    <ellipse id="Ellipse_3" data-name="Ellipse 3" cx="69.229" cy="19.373" rx="69.229" ry="19.373" transform="translate(7684.921 393.241)" fill="#ededed"/>
    <ellipse id="Ellipse_4" data-name="Ellipse 4" cx="38.687" cy="10.826" rx="38.687" ry="10.826" transform="translate(7683.781 348.228)" fill="#ededed"/>
    <g id="Group_2" data-name="Group 2" transform="translate(7693.717 351.156)">
      <path id="Path_39" data-name="Path 39" d="M8449.869,801.932a30.231,30.231,0,0,1-.418,6.4l-.71-.849-2.2-2.637s.158-1.743.158-2.219-.158-1.743-.158-1.743a13.579,13.579,0,0,1-.895,2.694c-.215,0-3.645-2.378-4.336-2.694s-4.064.1-5.123-1.585-9.244-14.005-9.244-14.005-.469-4.127-.875-7.424c-.247-2.01-.469-3.709-.552-3.988-.215-.736-2.1-9.732-.849-11.938a6.355,6.355,0,0,1,5.458-2.9,6.776,6.776,0,0,1,.882.045c3.081.355,8.141,2.219,11.627,13.631,3.1,10.138,4.692,14.436,5.713,16.42.133.254.247.463.361.647a21.021,21.021,0,0,0,3.747,3.848,9.888,9.888,0,0,1-4.489-2.954c-1.635-2.111-2.535-3.43-2.535-3.43a15.288,15.288,0,0,0,1.166,4.964C8447.866,794.7,8449.711,798.5,8449.869,801.932Z" transform="translate(-8382.945 -759.041)" fill="#3a0982"/>
      <path id="Path_40" data-name="Path 40" d="M8449.354,798.923c.083.355-4.4,1.268-4.4,1.268s-.064-.831-.185-1.832a11.859,11.859,0,0,0-.723-3.4s.019-.108.063-.273c.178-.716.754-2.53,1.877-1.788a2.068,2.068,0,0,1,.393.343c.114.12.229.26.35.412A24.77,24.77,0,0,1,8449.354,798.923Z" transform="translate(-8395.954 -781.163)" fill="#ffcab0"/>
      <path id="Path_41" data-name="Path 41" d="M8446.381,794.232a17.933,17.933,0,0,0-2.27,1.445c-.045.165-.063.273-.063.273a11.86,11.86,0,0,1,.723,3.4,15.988,15.988,0,0,0,1.96-4.7Z" transform="translate(-8395.954 -782.153)" fill="#e6e6e6" style="mix-blend-mode: multiply;isolation: isolate"/>
      <path id="Path_42" data-name="Path 42" d="M8423.028,775.306c0,3.751,1.7,8.193,3.884,8.731,2.733.674,6.842-5.719,6.366-7.41s-4.068-6.34-5.548-6.552-3.646,2.008-3.963,2.853S8423.028,775.306,8423.028,775.306Z" transform="translate(-8382.149 -766.278)" fill="#ffcab0"/>
      <path id="Path_43" data-name="Path 43" d="M8406.787,835.778a20.955,20.955,0,0,0-5.865-5.151c-3.289-1.743-4-2.655-4.358-3.487a24.3,24.3,0,0,0-2.22-4.042c-.515-.515-3.962-4.24-4.12-4.24s1.624,6.657,3.051,8.638,11.61,12.918,13.235,12.2S8406.787,835.778,8406.787,835.778Z" transform="translate(-8360.599 -798.326)" fill="#ffcab0"/>
      <path id="Path_44" data-name="Path 44" d="M8402,830.452c0-.852-.218-1.783-.595-1.882s-.951-.139-1.069-.02S8402,830.452,8402,830.452Z" transform="translate(-8367.24 -804.643)" fill="#ffcab0"/>
      <path id="Path_45" data-name="Path 45" d="M8450.039,840.862s.158-1.743.158-2.219-.158-1.743-.158-1.743a13.575,13.575,0,0,1-.894,2.694c-.216,0-3.646-2.378-4.337-2.694s-4.063.1-5.123-1.585-9.243-14.005-9.243-14.005-.47-4.128-.875-7.424c2.834,5.452,7.861,13.644,12.654,16.516,4.939,2.954,9.244,5.224,10.018,13.1Z" transform="translate(-8386.444 -795.06)" fill="#ccc" style="mix-blend-mode: multiply;isolation: isolate"/>
      <path id="Path_46" data-name="Path 46" d="M8482.061,863.279c-3.221-.577-5.072,1.376-6.657.532s-2.745-1.109-3.278-4.28a114.1,114.1,0,0,1-.894-17.435,42.621,42.621,0,0,0-.856-8.9c-.031-.171-.057-.342-.088-.507a16.476,16.476,0,0,1-.323-2.961,21.451,21.451,0,0,1,1.56-4.438.006.006,0,0,1,.006-.007c.127-.291.241-.545.336-.761l.26-.558c.045.076.1.159.14.241.063.108.134.228.2.343s.115.209.172.323c.007.006.007.006.007.012.057.108.114.216.171.33a26.365,26.365,0,0,1,2.91,13.809c-.476,6.657-2.327,20.872-1.478,21.715s3.271-1,4.54-.843,6.656,3.011,7.189,3.17S8485.281,863.862,8482.061,863.279Z" transform="translate(-8412.969 -801.683)" fill="#ffcab0"/>
      <path id="Path_47" data-name="Path 47" d="M8424.372,937.068a19.491,19.491,0,0,0-3.988-2.029,8.5,8.5,0,0,0-2.231-.666s-3.792-2.815-6.105-4.831c-1.084-.945-1.845-1.718-1.744-1.946.317-.71.635-.273,2.9.361s7.05,4.273,7.964,4.476,3.012-.082,3.645.2S8424.771,937.544,8424.372,937.068Z" transform="translate(-8373.786 -869.501)" fill="#ffcab0"/>
      <path id="Path_48" data-name="Path 48" d="M8455.313,950.239a11.608,11.608,0,0,1-.862,3.081c-.343.71-.679,1.008-.856.786-.342-.431-2.484-5.275-3.246-6.264s-2.77-2.5-2.586-2.726,1.553-1.579,1.369-2.65-1.478-2.263-1.395-2.5,6.048.919,6.625,2.27c.006.019.019.038.025.057A18.684,18.684,0,0,1,8455.313,950.239Z" transform="translate(-8398.374 -877.847)" fill="#6c50cc"/>
      <path id="Path_49" data-name="Path 49" d="M8375.769,893.392c-10.461-.106-27,3.064-28.055,6.287s34.131,6.34,34.659,5.865S8375.769,893.392,8375.769,893.392Z" transform="translate(-8332.671 -847.275)" fill="#907ae0"/>
      <path id="Path_50" data-name="Path 50" d="M8423.737,936.065a8.5,8.5,0,0,0-2.231-.666s-3.792-2.815-6.105-4.831c.222-1.021.475-1.775.475-1.775C8417.321,929.174,8422.5,932.337,8423.737,936.065Z" transform="translate(-8377.14 -870.527)" fill="#e6e6e6" style="mix-blend-mode: multiply;isolation: isolate"/>
      <path id="Path_51" data-name="Path 51" d="M8347.143,916.249c.159,2.747,1.268,5.653,7.819,7.185s23.512,4.174,23.512,3.593-5.7-6.619-7.608-7.4c-6.763-2.761-10-4.134-14.635-4.28C8349.047,915.126,8347.143,916.249,8347.143,916.249Z" transform="translate(-8332.312 -861.679)" fill="#a58cff"/>
      <path id="Path_52" data-name="Path 52" d="M8339.658,911.477v.019c-.107.526-3.7,3.271-4.229,4.381a10.688,10.688,0,0,1-1.269,2.644c-.634.71-5.015-1.477-3.905-1.927a10.9,10.9,0,0,0,2.721-2.206c.107-.108.209-.216.311-.323.278-.3.539-.583.754-.831.07-.082.146-.165.229-.26a28.123,28.123,0,0,1,2.555-1.737,5.81,5.81,0,0,1,1.2-.564c.825-.234,1.338-.013,1.541.323A.651.651,0,0,1,8339.658,911.477Z" transform="translate(-8321.104 -858.562)" fill="#ffcab0"/>
      <path id="Path_53" data-name="Path 53" d="M8318.843,925.414c.134.2-2.01,4.533-2.979,4.951a.268.268,0,0,1-.133.038c-.888.025-6.365-.317-8.864-2.27a11.263,11.263,0,0,1-1.42-1.319c-1.318-1.477-1.642-2.777-1.471-3.145.222-.475,3.392.736,5.585.919a9.945,9.945,0,0,0,4.084-.868c.082.374-.248,1.794,1.2,2.219S8318.7,925.2,8318.843,925.414Z" transform="translate(-8303.934 -867.09)" fill="#6c50cc"/>
      <path id="Path_54" data-name="Path 54" d="M8432.389,772.291c-3.883,3.989-7.925-4.068-7.925-4.068s-.951,5.019-3.25,4.2.331-7.463,1.691-8.11c1.7-.81,5.441.528,6.049,1.427S8432.389,772.291,8432.389,772.291Z" transform="translate(-8380.362 -762.339)" fill="#3a0982"/>
      <path id="Path_55" data-name="Path 55" d="M8471.605,831c-.576.8-1,1.452-1.318,1.972a16.476,16.476,0,0,1-.323-2.961,21.451,21.451,0,0,1,1.56-4.438.006.006,0,0,1,.006-.006c.127-.291.241-.545.336-.761.172-.133.311-.241.4-.317.007-.006.013-.006.02-.013.076-.051.114-.082.114-.082.082.234.164.482.234.748v.013c.007.006.007.006.007.012A6.374,6.374,0,0,1,8471.605,831Z" transform="translate(-8412.969 -801.963)" fill="#e6e6e6" style="mix-blend-mode: multiply;isolation: isolate"/>
      <path id="Path_56" data-name="Path 56" d="M8441.645,834.421c1.637,5.865,1.281,11.266.172,13.542-.178.361-.6.222-1.167-.266-3.018-2.567-10.354-14.893-9.466-15.07,1.053-.209.526-7.767.476-8.192s-2.22-2.954-2.168-5.173,4.5-9.028,6.022-9.726c.317-.146,3.563-1.515,6.145-.843s3.366,2.536,4.368,5.5-2,6.657-3.431,8.242a5.5,5.5,0,0,0-.951,1.636C8440.77,826.28,8440.4,829.97,8441.645,834.421Z" transform="translate(-8386.394 -791.529)" fill="#f9acff"/>
      <path id="Path_57" data-name="Path 57" d="M8346.288,911.671a5.237,5.237,0,0,1-.488.526,10.423,10.423,0,0,1-6.372,2.587c.279-.3.539-.583.755-.831.069-.082.146-.165.228-.26a28.051,28.051,0,0,1,2.556-1.737c.862-.082,2.041-.184,2.739-.241C8346.06,911.69,8346.288,911.671,8346.288,911.671Z" transform="translate(-8327.244 -859.282)" fill="#e6e6e6" style="mix-blend-mode: multiply;isolation: isolate"/>
      <path id="Path_58" data-name="Path 58" d="M8459.131,877.734c-.178.361-.6.222-1.166-.266-1.174-2.777-2.334-6.631-2.074-6.828.426-.317,2.22,1.477,2.752,0,.52-1.458-2.624-13.473.317-16.8-.875,2.213-1.249,5.9,0,10.353C8460.6,870.056,8460.24,875.458,8459.131,877.734Z" transform="translate(-8403.708 -821.299)" fill="#e6e6e6" style="mix-blend-mode: multiply;isolation: isolate"/>
      <path id="Path_59" data-name="Path 59" d="M8376.591,870.694c-4.007-.349-8.9-3.075-13.353-10.9-.526-.925-1.014-1.838-1.458-2.72a53.529,53.529,0,0,1-4.59-12.465,15.314,15.314,0,0,1-.559,6.15,17.948,17.948,0,0,1-2.124,4.451,29.594,29.594,0,0,1-4.691,5.484c-4.172,3.893-11.037,5.49-10.562,4.755a108.08,108.08,0,0,0,8.293-14.741c4.546-9.459,6.5-13.58,9.776-13.1s23.085,17.9,25.3,27.9C8383.134,867.759,8381.625,871.125,8376.591,870.694Z" transform="translate(-8327.115 -810.614)" fill="#a58cff"/>
      <path id="Path_60" data-name="Path 60" d="M8393.4,821.528h0a.343.343,0,0,1-.483-.041l-7.628-9.049a.343.343,0,0,1,.041-.484h0a.343.343,0,0,1,.483.041l7.628,9.049A.344.344,0,0,1,8393.4,821.528Z" transform="translate(-8357.313 -793.738)"/>
      <path id="Path_61" data-name="Path 61" d="M8459.609,789.138c-1.939-1.94-5.053-6.467-7.513-14.886-3.215-11.019-7.056-13.625-10.708-15.21a6.752,6.752,0,0,1,.881.045c3.081.355,8.141,2.219,11.628,13.631C8457,782.855,8458.589,787.154,8459.609,789.138Z" transform="translate(-8394.208 -759.041)" fill="#d9d9d9" style="mix-blend-mode: soft-light;isolation: isolate"/>
      <path id="Path_62" data-name="Path 62" d="M8466.48,954.747a11.64,11.64,0,0,1-.863,3.081,14.772,14.772,0,0,1-.881-5.592,15.17,15.17,0,0,1,.818-5.433A18.7,18.7,0,0,1,8466.48,954.747Z" transform="translate(-8409.542 -882.355)" fill="#e6e6e6" style="mix-blend-mode: multiply;isolation: isolate"/>
      <path id="Path_63" data-name="Path 63" d="M8318.759,936.592a.268.268,0,0,1-.134.038c-.888.025-6.365-.317-8.863-2.27a11.2,11.2,0,0,1-1.42-1.319,24.542,24.542,0,0,1,4.635.951A20.306,20.306,0,0,1,8318.759,936.592Z" transform="translate(-8306.829 -873.317)" fill="#e6e6e6" style="mix-blend-mode: multiply;isolation: isolate"/>
      <path id="Path_64" data-name="Path 64" d="M8386.422,854.659a15.306,15.306,0,0,1-.558,6.15,17.95,17.95,0,0,1-2.124,4.451c1.318-3.563,2.192-11.288,2.351-12.317.175-1.136,4.566,10.928,4.921,14.18A53.635,53.635,0,0,1,8386.422,854.659Z" transform="translate(-8356.347 -820.662)" fill="#e6e6e6" style="mix-blend-mode: multiply;isolation: isolate"/>
    </g>
    <path id="Path_65" data-name="Path 65" d="M7846.252,549.74v.006a.969.969,0,0,1-.261.619,10.565,10.565,0,0,1-2.326.984c-2.726-1.512-5.653-4.171-4.882-6.661a1.446,1.446,0,0,1,.049-.146c.935-2.532,6.3-3.06,6.679-2.477A25.342,25.342,0,0,1,7846.252,549.74Z" transform="translate(-304.644 -265.243)" fill="#301968"/>
    <path id="Path_66" data-name="Path 66" d="M7846.252,555.171v.006a.969.969,0,0,1-.261.619,10.565,10.565,0,0,1-2.326.984c-2.726-1.512-5.653-4.171-4.882-6.661a6.151,6.151,0,0,0,5.792,4.432C7845.5,554.545,7846.021,554.794,7846.252,555.171Z" transform="translate(-304.644 -270.674)" fill="#ccc" style="mix-blend-mode: multiply;isolation: isolate"/>
    <path id="Path_67" data-name="Path 67" d="M7852.946,568.442c-.018,1.008.031,2.192,0,2.319-.048.206-4.809.838-5.161-.376-.292-1,.929-4.256,1.961-6.387.225-.455.431-.856.619-1.178,0,0,2.933,3.746,2.708,4.274A5.011,5.011,0,0,0,7852.946,568.442Z" transform="translate(-310.609 -279.016)" fill="#c49069"/>
    <path id="Path_68" data-name="Path 68" d="M7856.909,567.094a5.011,5.011,0,0,0-.127,1.348c-3.2-1.245-2.933-3.327-2.781-3.728.121-.316-.091-.365-.419-.717.225-.455.431-.856.619-1.178C7854.2,562.82,7857.134,566.566,7856.909,567.094Z" transform="translate(-314.445 -279.016)" fill="#e6e6e6" style="mix-blend-mode: multiply;isolation: isolate"/>
    <path id="Path_69" data-name="Path 69" d="M7862.445,545.7c.607,3.036.607,9.645-1.72,10.657s-4.5-1.569-4.706-2.075.2-6.729.557-7.033A60.4,60.4,0,0,1,7862.445,545.7Z" transform="translate(-316.01 -267.771)" fill="#d89e73"/>
    <path id="Path_70" data-name="Path 70" d="M7853.255,556.887c-.658-.886-1.388-1.1-1.948-.734-1.012.658.38,2.783.86,2.935a.979.979,0,0,0,1.139-.3A11.369,11.369,0,0,0,7853.255,556.887Z" transform="translate(-312.714 -274.526)" fill="#d89e73"/>
    <path id="Path_71" data-name="Path 71" d="M7854.877,837.754c0,.182-.176.34-1.968.553-.23.024-.5.055-.789.085a14.031,14.031,0,0,1-5.106-.467c-.243-.067-.474-.133-.686-.194a36.5,36.5,0,0,0-3.916-.419c-1.032-.1-1.864-.249-1.925-.541a7.146,7.146,0,0,1,1.438-4.785,24.408,24.408,0,0,1,3.747-.176c.328.182.122,1.749,3.515,3.066S7854.877,837.554,7854.877,837.754Z" transform="translate(-305.813 -455.644)" fill="#630"/>
    <path id="Path_72" data-name="Path 72" d="M7847.108,846.78c0,.006,0,.006-.006.006a11.693,11.693,0,0,1-1.761.188,26.349,26.349,0,0,1-4.025-.231c-.012-.006-.024-.006-.036-.012-.517-.17-.662-.365-.7-1.105a10.149,10.149,0,0,1,3.637-.3,6.378,6.378,0,0,1,1.166.377A4.619,4.619,0,0,1,7847.108,846.78Z" transform="translate(-305.907 -464.5)" fill="#a85b0a"/>
    <path id="Path_73" data-name="Path 73" d="M7795.791,824.385c.048.249-.559.656-1.59.7a18.131,18.131,0,0,1-3.807-.219,4.419,4.419,0,0,1-2.295-.941c-1.214-1.238-.808-2.811-.784-4a6.871,6.871,0,0,0-.9-2.465c-.57-1.117-1.2-2.137-1.2-2.137s.006-.012.006-.018a4.416,4.416,0,0,1,3.236-1.676s2.933,2.125,2.653,2.708.687,4.378.862,4.833S7795.742,824.13,7795.791,824.385Z" transform="translate(-269.544 -443.738)" fill="#630"/>
    <path id="Path_74" data-name="Path 74" d="M7786.419,823.134c-.049-.152-1.1-1.233-1.979-2.386a2.249,2.249,0,0,1-.589-1.354,1.286,1.286,0,0,1,.474-.88,6.43,6.43,0,0,1,1.712,1.664,5.981,5.981,0,0,1,.31,1.475v.006A7.462,7.462,0,0,1,7786.419,823.134Z" transform="translate(-268.648 -446.944)" fill="#a85b0a"/>
    <path id="Path_75" data-name="Path 75" d="M7852.588,708.946c-.152,4.25-4.785,25.883-5.234,26.26s-5.543.607-5.695.231c-.116-.291.8-12.228,1.19-18.021.121-1.755.194-2.945.176-3.084-.067-.5.285-20.941,1.129-27.954a6.473,6.473,0,0,1,.5-2.277c.019-.018.031-.036.049-.042a.085.085,0,0,1,.067-.006c.225.067.5.158.814.267a.021.021,0,0,0,.018.006c1.451.528,3.5,1.4,3.5,1.4.146.462.322,1.2.522,2.119C7850.8,693.263,7852.715,705.315,7852.588,708.946Z" transform="translate(-306.607 -358.633)" fill="#854100"/>
    <path id="Path_76" data-name="Path 76" d="M7813.149,679.015c1.063,4.25,4.63,22.617,3.719,24.894s-7.893,10.625-13.357,16.393-6.527,6.224-6.755,6.224-4.022-2.2-3.946-3.567,14.8-17.759,14.8-18.518-6.072-19.581-6.072-21.023,1.821-7.817,3.719-7.362S7813.149,679.015,7813.149,679.015Z" transform="translate(-274.532 -353.368)" fill="#994d00"/>
    <path id="Path_77" data-name="Path 77" d="M7836.789,686.652a30.814,30.814,0,0,1-3.8-.959c-.552-.164-1.117-.34-1.664-.5-1.67-.516-3.176-1-3.709-1.147-1.4-.383-3.528.492-5.5-.686a7.841,7.841,0,0,1,2.841-1.02,20.808,20.808,0,0,1,6.867.577c.1.019.207.043.315.067,0,.006.006,0,.006,0,.2.048.407.1.607.152a.023.023,0,0,0,.019.006c1.451.528,3.5,1.4,3.5,1.4C7836.412,684.995,7836.589,685.729,7836.789,686.652Z" transform="translate(-293.778 -357.444)" fill="#e6e6e6" style="mix-blend-mode: multiply;isolation: isolate"/>
    <path id="Path_78" data-name="Path 78" d="M7839.154,599.3a77.131,77.131,0,0,0-2.222,7.747c-.079.759-.176,2.222-.3,3.892-.3,3.9-.7,8.974-1.165,9.01a35.42,35.42,0,0,1-7.389-2.228c-1.579-.71-4.007-.224-5.817-.237a3.971,3.971,0,0,1-1.6-.267c-.887-.419-.346-4.044.328-7.359.552-2.708,1.2-5.209,1.22-5.592.049-.862-.558-11.894-.71-13.564s2.781-7.893,2.781-7.893c2.835-1.615,9.059-.249,11.791.407s4.2,1.111,5.361,4.2C7842.1,589.188,7840.6,594.562,7839.154,599.3Z" transform="translate(-292.519 -291.644)" fill="#fb0"/>
    <path id="Path_79" data-name="Path 79" d="M7865.477,615.689a77.131,77.131,0,0,0-2.222,7.747c-.079.759-.176,2.222-.3,3.892-4.134-2.921-2.355-18.172-1.924-20.322a14.063,14.063,0,0,1,2.769,2.01A31.387,31.387,0,0,1,7865.477,615.689Z" transform="translate(-318.841 -308.036)" fill="#e6e6e6" style="mix-blend-mode: multiply;isolation: isolate"/>
    <path id="Path_80" data-name="Path 80" d="M7882.373,624.9a1.771,1.771,0,0,1-1.725,1.815l-5.5.14-3.57.091-5.4.134a1.774,1.774,0,0,1-1.815-1.724l-.321-13.1-.013-.407-.03-1.159a1.77,1.77,0,0,1,1.725-1.815l5.4-.134,3.57-.091,5.5-.14a1.775,1.775,0,0,1,1.816,1.724l.03,1.154.012.4.213,8.664.018.826Z" transform="translate(-321.287 -309.022)" fill="#ff5819"/>
    <path id="Path_81" data-name="Path 81" d="M7910.055,639.318a8.1,8.1,0,0,1-2.095-.765c-1.895-.911-1.785-2.01-1.536-2.514a2.486,2.486,0,0,1,1.232.031,9.709,9.709,0,0,1,2.38,2.422Z" transform="translate(-349.06 -327.062)" fill="#e6e6e6" style="mix-blend-mode: multiply;isolation: isolate"/>
    <path id="Path_82" data-name="Path 82" d="M7910.635,629.76c.594.964.557,4.528.1,4.68a8.356,8.356,0,0,1-3.744-1.265,1.344,1.344,0,0,1-.4-1.316C7906.714,631.481,7910.167,629,7910.635,629.76Z" transform="translate(-349.223 -322.885)" fill="#d89e73"/>
    <g id="Group_3" data-name="Group 3" transform="translate(7523.817 329.933)">
      <path id="Path_83" data-name="Path 83" d="M7808.951,703.973c0-.165-.072-4.065,1.76-5.869a3.071,3.071,0,0,1,2.351-.893,3.2,3.2,0,0,1,2.371,1c1.165,1.309.99,3.558.885,4.9-.023.3-.043.55-.043.736h-.607c0-.2.021-.467.045-.784.1-1.247.26-3.335-.733-4.45a2.583,2.583,0,0,0-1.942-.8,2.423,2.423,0,0,0-1.9.718c-1.645,1.618-1.581,5.385-1.58,5.422Z" transform="translate(-7808.95 -697.209)" fill="#ff8000"/>
    </g>
    <path id="Path_84" data-name="Path 84" d="M7822.257,670.689a3.969,3.969,0,0,1-1.6-.267c-.887-.419-.346-4.044.328-7.359A41.31,41.31,0,0,1,7822.257,670.689Z" transform="translate(-292.519 -344.851)" fill="#e6e6e6" style="mix-blend-mode: multiply;isolation: isolate"/>
    <path id="Path_85" data-name="Path 85" d="M7818.13,687.774c-.127.99-3.977,1.366-4.3.686-.261-.546.268-4.711.644-6.387.1-.419.183-.686.243-.7.3-.079,2.4-.71,2.4-.71a9.309,9.309,0,0,1,.315.959A21.169,21.169,0,0,1,7818.13,687.774Z" transform="translate(-288.289 -356.41)" fill="#d89e73"/>
    <path id="Path_86" data-name="Path 86" d="M7818.8,681.623a7.529,7.529,0,0,1-2.963.449c.1-.419.182-.686.242-.7.3-.079,2.4-.71,2.4-.71A9.191,9.191,0,0,1,7818.8,681.623Z" transform="translate(-289.654 -356.41)" fill="#e6e6e6" style="mix-blend-mode: multiply;isolation: isolate"/>
    <path id="Path_87" data-name="Path 87" d="M7811.476,584.239c-4.864,0-10.752,15.128-10.777,17.608-.03,2.947,4.6,16.545,5.11,16.646a7.262,7.262,0,0,0,2.941-.816c0-.2-2.232-14.211-2.03-14.92s6.172-7.033,6.831-13.054S7811.931,584.239,7811.476,584.239Z" transform="translate(-279.714 -293.074)" fill="#ffc72e"/>
    <path id="Path_88" data-name="Path 88" d="M7852.769,538.026a29.517,29.517,0,0,1,6.229-3.213c1.8-.531.786-5.561.179-6.737s-8.7,4.271-8.4,5.2S7852.769,538.026,7852.769,538.026Z" transform="translate(-312.601 -256.088)" fill="#301968"/>
    <path id="Path_89" data-name="Path 89" d="M7839.513,534.993c.74-1.784,6.644-5.8,9.357-6.745s3.491-.569,2.543.531-2.277,1.84-4.915,2.808A65.407,65.407,0,0,0,7839.513,534.993Z" transform="translate(-305.205 -255.956)" fill="#412487"/>
    <path id="Path_90" data-name="Path 90" d="M7895.028,586.157c0,.146-2.75,1.973-3.224,2.544-.134.164-.292.365-.456.577-.4.54-.814,1.129-.838,1.166a11.664,11.664,0,0,1-1.488-.067l-.771-.067c.03-.085.1-.364.182-.771.14-.589.322-1.433.517-2.338a43.413,43.413,0,0,1,1.1-4.572c.152.091,1.634,1.688,2.162,2.065S7895.01,586.024,7895.028,586.157Z" transform="translate(-337.215 -292.025)" fill="#ffe633"/>
    <path id="Path_91" data-name="Path 91" d="M7878.274,590.4s-.061.911-.182,1.682a5.484,5.484,0,0,1-.176.826.376.376,0,0,1-.1.158,2.564,2.564,0,0,1-2.38-.2.648.648,0,0,0-.194-.17c-.838-.54-4.056-1.937-4.056-2.046a13.331,13.331,0,0,1,1.554-1.2c.79-.607,2.416-2.733,2.581-2.733a29.612,29.612,0,0,0,2.422,3.169C7877.91,590.063,7878.093,590.232,7878.274,590.4Z" transform="translate(-326.005 -294.71)" fill="#ffe633"/>
    <path id="Path_92" data-name="Path 92" d="M7882.051,611.788c-.006,0-.006.006-.012.006a.884.884,0,0,1-.31.067l-6.965.176-3.57.091-6.885.17a.764.764,0,0,1-.267-.043l-.013-.407-.03-1.159a1.77,1.77,0,0,1,1.725-1.815l5.4-.134,3.57-.091,5.5-.14a1.775,1.775,0,0,1,1.816,1.724l.03,1.154Z" transform="translate(-321.287 -309.022)" fill="#e6e6e6" style="mix-blend-mode: multiply;isolation: isolate"/>
    <path id="Path_93" data-name="Path 93" d="M7887.9,601.948c-.4.54-.814,1.129-.838,1.166a11.672,11.672,0,0,1-1.488-.067,2.563,2.563,0,0,1-2.38-.2.641.641,0,0,0-.194-.17c.479-.146,1.215-.322,1.985-.467.286-.055.583-.1.868-.146A8.231,8.231,0,0,1,7887.9,601.948Z" transform="translate(-333.765 -304.695)" fill="#e6e6e6" style="mix-blend-mode: multiply;isolation: isolate"/>
    <path id="Path_94" data-name="Path 94" d="M7881.274,607.253a.924.924,0,0,1-.595.885.874.874,0,0,1-.31.067l-6.965.176-3.57.091-6.885.17a.839.839,0,0,1-.279-.042.919.919,0,0,1-.667-.861l-.073-2.789a.927.927,0,0,1,.9-.946l6.885-.176,3.57-.091,6.965-.176a.927.927,0,0,1,.947.9Z" transform="translate(-319.927 -305.772)" fill="#ff672e"/>
    <path id="Path_95" data-name="Path 95" d="M7888.694,623.931l-3.57.091-.382-15.228-.073-2.981-.042-1.67,3.57-.091.043,1.67.072,2.981Z" transform="translate(-334.834 -306.095)" fill="#ffe633"/>
    <path id="Path_96" data-name="Path 96" d="M7811.539,736.055c-.085.018-.5.042-1.154.079-3.485.182-13.57.553-13.57.377,0-.146-.164-4,.024-8.045v-.048c.073-1.469.188-2.957.376-4.3.71-5.064,1.518-11.688,1.67-11.591a17.365,17.365,0,0,0,5.367.759c2.222-.2,6.473-.959,6.473-.959S7812.092,735.958,7811.539,736.055Z" transform="translate(-277.119 -377.205)" fill="#ff8000"/>
    <path id="Path_97" data-name="Path 97" d="M7837.476,712.325s3.441,14.622,4.2,16.748S7843.6,736,7843.6,736l-5.312.051Z" transform="translate(-303.867 -377.204)" fill="#e06e00"/>
    <path id="Path_98" data-name="Path 98" d="M7810.385,767.012c-3.485.182-13.57.553-13.57.376,0-.146-.164-4,.024-8.045.152,2.544.51,4.979,3,5.768C7803.117,766.156,7809.675,766.4,7810.385,767.012Z" transform="translate(-277.119 -408.084)" fill="#e6e6e6" style="mix-blend-mode: multiply;isolation: isolate"/>
    <path id="Path_99" data-name="Path 99" d="M7854.339,847.955c-.23.024-.5.055-.789.085a14.031,14.031,0,0,1-5.106-.467c0,.006,0,.006-.006.006a11.7,11.7,0,0,1-1.761.188,26.357,26.357,0,0,1-4.025-.231c-.012-.006-.024-.006-.036-.012a4.07,4.07,0,0,1,1.227-.565,13.924,13.924,0,0,1,2.878-.467c.522-.031,1.08-.049,1.651-.037C7851.328,846.5,7853.781,847.141,7854.339,847.955Z" transform="translate(-307.243 -465.292)" fill="#e6e6e6" style="mix-blend-mode: multiply;isolation: isolate"/>
    <path id="Path_100" data-name="Path 100" d="M7789.5,829.761a4.419,4.419,0,0,1-2.295-.941c-1.214-1.238-.808-2.811-.784-4-.049-.152-1.1-1.233-1.979-2.386a2.249,2.249,0,0,1-.589-1.354,4.4,4.4,0,0,1,1.67,1.275c.268.286.547.62.826.984v.006a19.367,19.367,0,0,1,1.445,2.216A15.9,15.9,0,0,1,7789.5,829.761Z" transform="translate(-268.648 -448.629)" fill="#e6e6e6" style="mix-blend-mode: multiply;isolation: isolate"/>
    <path id="Path_101" data-name="Path 101" d="M8410.021,521.937c-.134.177-3.641,2.5-3.641,2.5a6.075,6.075,0,0,0,2.392-.563l.649-.354s-2.328,6.547-2.752,6.837a26.149,26.149,0,0,1-5.92,2.659c-.294.07-.567.129-.83.188-1.689.381-2.7.568-2.7.568s.67.627,3.619.048a17.22,17.22,0,0,0,4.316-1.33c-.3.2-4.617,3.03-8.43,3.207-3.951.177-7.271.241-10.386-3.512s-3.855-9.952-5.03-11.325a2.423,2.423,0,0,0-1.045-.735,3.512,3.512,0,0,0-2.038.032c-.236.032-1.029-.7-1.029-.7,1.7-2.976,4.042-3.625,8.9-.944s10.944,4.4,15.572,2.413a48.463,48.463,0,0,1,5.764-2.252,79.819,79.819,0,0,1-8.177,3.775,15.94,15.94,0,0,1-9.384-.761,12.8,12.8,0,0,1-3.807-1.925,15.637,15.637,0,0,0,6.354,4.563c4.134,1.426,7.416,1.475,11.931-1.03a58.936,58.936,0,0,0,6.719-4.193C8411.014,519.267,8410.15,521.765,8410.021,521.937Z" transform="translate(-658.335 -248.808)" fill="#401f7f"/>
    <path id="Path_102" data-name="Path 102" d="M8371.266,524.686c.318-.335,1.391-1.173,2.279-.7s2.145,1.826,1.574,3.167S8371.266,524.686,8371.266,524.686Z" transform="translate(-654.437 -253.417)" fill="#ffa1be"/>
    <path id="Path_103" data-name="Path 103" d="M8373.908,537.273l-.611-.869V536.4l-1.518-2.156c-.369-.874.922-7.056,1.743-6.536a5.9,5.9,0,0,1,1.77,1.534,4.611,4.611,0,0,1,.552.976c.021.043.043.091.06.134.043.113.069.193.08.22A6.457,6.457,0,0,1,8373.908,537.273Z" transform="translate(-654.732 -255.934)" fill="#401f7f"/>
    <path id="Path_104" data-name="Path 104" d="M8376.938,540.267l-.611-.869v-.005c0-.182.183-.246.391-.455,2.7-2.676,1.674-4.762,1.6-6.7a4.657,4.657,0,0,1,.553.976,1.332,1.332,0,0,1,.059.134c.043.113.07.193.081.22A6.461,6.461,0,0,1,8376.938,540.267Z" transform="translate(-657.76 -258.928)" fill="#e6e6e6" style="mix-blend-mode: multiply;isolation: isolate"/>
    <path id="Path_105" data-name="Path 105" d="M8373.451,553.691c-.3.4-3.984,0-3.984-.231a3.007,3.007,0,0,0,.74-1.673,7.053,7.053,0,0,0,0-1.544,3.243,3.243,0,0,1,.155-1.566v-.005a1.415,1.415,0,0,1,1.458-.89c.021.037.048.07.069.113.049.075.1.166.146.257C8372.872,549.76,8373.73,553.321,8373.451,553.691Z" transform="translate(-653.256 -269.135)" fill="#fcd8c5"/>
    <path id="Path_106" data-name="Path 106" d="M8371.563,551.953a7.053,7.053,0,0,0,0-1.544,3.231,3.231,0,0,1,.155-1.566v-.005a4.876,4.876,0,0,1,1.528-.777l.107-.032a2.577,2.577,0,0,1,.037.29C8373.542,549.7,8372.974,551.658,8371.563,551.953Z" transform="translate(-654.612 -269.301)" fill="#e6e6e6" style="mix-blend-mode: multiply;isolation: isolate"/>
    <path id="Path_107" data-name="Path 107" d="M8357.628,536.323a7.337,7.337,0,0,0,1.832,6.569c.938.715,3.8-.894,4.155-1.385a4.961,4.961,0,0,0-.223-4.871c-1.341-1.787-2.682-1.922-3.62-1.341A14.05,14.05,0,0,1,8357.628,536.323Z" transform="translate(-645.374 -260.736)" fill="#fcd8c5"/>
    <path id="Path_108" data-name="Path 108" d="M8375.644,542.7c.268-.436,1.063-.925,1.407-.57a1.276,1.276,0,0,1-.38,2c-1,.648-1.14-.4-1.162-.536A6.386,6.386,0,0,1,8375.644,542.7Z" transform="translate(-657.222 -265.345)" fill="#fcd8c5"/>
    <g id="Group_4" data-name="Group 4" transform="translate(7676.451 282.079)">
      <path id="Path_109" data-name="Path 109" d="M8253.715,559.7l-.086-.529c.054-.009,5.424-.874,8.766-1.23.753-.08,1.291-.127,1.693-.146l.026.536c-.392.019-.921.065-1.663.143C8259.124,558.826,8253.768,559.689,8253.715,559.7Z" transform="translate(-8253.629 -557.792)" fill="#ff6542"/>
    </g>
    <path id="Path_110" data-name="Path 110" d="M8278.266,555.935a22.72,22.72,0,0,0,2.972-.436c.313-.179.022.76-.581,1.408S8278.266,555.935,8278.266,555.935Z" transform="translate(-593.359 -274.193)" fill="#edccb9"/>
    <g id="Group_5" data-name="Group 5" transform="translate(7682.922 283.922)">
      <path id="Path_111" data-name="Path 111" d="M8272.967,573.1l-.484-.228c.031-.066,3.123-6.659,4.221-9.706l.5.182C8276.1,566.414,8273,573.029,8272.967,573.1Z" transform="translate(-8272.482 -563.162)" fill="#ffaba8"/>
    </g>
    <path id="Path_112" data-name="Path 112" d="M8308.124,558.978s-.7,3.652-.97,4.456a.431.431,0,0,1-.178.188,17.916,17.916,0,0,1-3.571,1.517c-3.41,1.185-8.193,2.483-10.129,2.419-3.115-.1-7.608-6.134-11.126-7.673s-3.92-2.885-3.889-3.121,4.227,1.41,5.427,2.177,10.392,5.534,10.929,5.534S8306.012,559.413,8308.124,558.978Z" transform="translate(-593.354 -275.023)" fill="#fcd8c5"/>
    <g id="Group_6" data-name="Group 6" transform="translate(7676.762 282.309)">
      <path id="Path_113" data-name="Path 113" d="M8254.8,565.4a.268.268,0,0,1-.152-.489c.06-.041,5.951-4.108,8.969-5.763a10.713,10.713,0,0,1,1.56-.672.268.268,0,1,1,.173.507,10.281,10.281,0,0,0-1.475.635c-2.994,1.642-8.862,5.693-8.922,5.734A.265.265,0,0,1,8254.8,565.4Z" transform="translate(-8254.534 -558.463)" fill="#ffaba8"/>
    </g>
    <g id="Group_7" data-name="Group 7" transform="translate(7680.719 282.443)">
      <path id="Path_114" data-name="Path 114" d="M8266.334,565.761a.268.268,0,0,1-.115-.51c.34-.217,3.947-3.323,5.768-5.184a8.907,8.907,0,0,0,.948-1.089.268.268,0,0,1,.45.291,9.1,9.1,0,0,1-1.015,1.172,69.833,69.833,0,0,1-5.954,5.308A.267.267,0,0,1,8266.334,565.761Z" transform="translate(-8266.065 -558.855)" fill="#ff6542"/>
    </g>
    <path id="Path_115" data-name="Path 115" d="M8363.794,770.784c-.359.305-2.719-.048-2.794-.424-.043-.22-.365-1.4-.552-2.408-.027-.15-.054-.3-.07-.44-.081-.52-.1-.928.021-1.03.295-.257,1.807-.048,2.333.037h.021c.1.016.16.027.16.027.049.284.156.686.279,1.131C8363.553,768.939,8364.063,770.553,8363.794,770.784Z" transform="translate(-647.244 -412.691)" fill="#fcd8c5"/>
    <path id="Path_116" data-name="Path 116" d="M8436.977,685.668a11.262,11.262,0,0,1-1.957.515c-.632.129-1.281.247-1.731.3-.332.037-.553.037-.579-.011a15.69,15.69,0,0,1,1.186-2.729c.166-.005.358-.022.563-.037.1-.011.2-.022.306-.027a8.591,8.591,0,0,1,2.595-.113C8437.669,683.792,8437.293,685.443,8436.977,685.668Z" transform="translate(-694.787 -358.269)" fill="#fcd8c5"/>
    <path id="Path_117" data-name="Path 117" d="M8363.5,531.24s-.1,1.408-.905.754a3.514,3.514,0,0,1-.988-1.91s-1.072,2.5-3.469,2.078-2.178-2.061-1.006-3.7,3.889-3.083,6.251-1.726S8363.5,531.24,8363.5,531.24Z" transform="translate(-644.598 -254.961)" fill="#401f7f"/>
    <path id="Path_118" data-name="Path 118" d="M8349.463,776.721c-.021.011-.043.022-.069.032a19.935,19.935,0,0,1-7.571.215,14.81,14.81,0,0,1-2.359-.526c-1.685-.536-2.043-1.142-1.974-1.174a54.394,54.394,0,0,0,5.737-1.228,8.576,8.576,0,0,0,2.1-1.5c1.979,1.319,3.732-.268,3.889-.247S8350,776.453,8349.463,776.721Z" transform="translate(-632.249 -416.591)" fill="#4975c7"/>
    <path id="Path_119" data-name="Path 119" d="M8446.529,686.536q-.233,1.053-.45,1.8c-.794,2.8-1.346,2.729-1.362,2.579a52.725,52.725,0,0,0-.938-5.341c-.4-1.292-.847-2.166-1.228-2.236s-.869.2-.917.091c-.1-.247.74-1.588.316-2.343s-1.362-.9-1.341-.987,3.593-1.539,4.129-1.271a1.547,1.547,0,0,1,.413.375A8.472,8.472,0,0,1,8446.529,686.536Z" transform="translate(-699.979 -355.185)" fill="#4975c7"/>
    <path id="Path_120" data-name="Path 120" d="M8363.315,767.988a6.656,6.656,0,0,1-2.745.274c-.027-.15-.055-.3-.07-.44a3.621,3.621,0,0,1,2.354-.992h.021c.1.016.161.027.161.027C8363.085,767.141,8363.191,767.543,8363.315,767.988Z" transform="translate(-647.367 -413)" fill="#e6e6e6" style="mix-blend-mode: multiply;isolation: isolate"/>
    <path id="Path_121" data-name="Path 121" d="M8342.566,630.723c-2.078,7.775.536,25.269,1.207,29.224s3.5,18.7,4.373,18.768,2.781-.419,2.781-.754.117-15.735-1.055-19.488a29.369,29.369,0,0,1-1.342-12.735c.671-5.831,1.676-11.6.2-13S8342.566,630.723,8342.566,630.723Z" transform="translate(-635.071 -323.611)" fill="#6b92e0"/>
    <path id="Path_122" data-name="Path 122" d="M8436.089,686.538c-.632.129-1.281.247-1.731.3a.513.513,0,0,1-.021-.247,12.178,12.178,0,0,1,1.19-2.531c.1-.011.2-.022.306-.027A2.774,2.774,0,0,1,8436.089,686.538Z" transform="translate(-695.856 -358.624)" fill="#e6e6e6" style="mix-blend-mode: multiply;isolation: isolate"/>
    <path id="Path_123" data-name="Path 123" d="M8355.4,626.24c.67,6.5,2.988,25.338,9.651,25.537,6.726.2,18.656-4.535,18.745-4.8s.537-2.368,0-2.591-8.311.134-11.037.223-6.256,1.519-6.613,1.385.447-17.114-2.636-20.957S8355.4,626.24,8355.4,626.24Z" transform="translate(-644.017 -318.927)" fill="#7aa5fa"/>
    <path id="Path_124" data-name="Path 124" d="M8355.609,585.982c-.187.847-6.735,1.276-10.714,1.367-.006-.005-.006-.005-.006,0a16.8,16.8,0,0,1-3-.07c-.269-.268-.445-.445.4-3.711s2.547-6.612,3.351-9.695-.847-5.405,1.115-8.177,2.413-3.255,4.918-3.266a32.479,32.479,0,0,1,5.63.633c.938.305,1.41.788,1.41,2.869,0,1.523-2.665,5.024-4.279,7.957a9.863,9.863,0,0,0-1.152,2.842C8352.794,579.729,8355.877,584.775,8355.609,585.982Z" transform="translate(-635 -278.76)" fill="#ffabc6"/>
    <g id="Group_8" data-name="Group 8" transform="translate(7748.76 292.748)">
      <path id="Path_125" data-name="Path 125" d="M8470.281,597.067a43.226,43.226,0,0,0-5.988-7.815l.383-.374a43.725,43.725,0,0,1,6.078,7.936Z" transform="translate(-8464.293 -588.877)" fill="#7aa5fa"/>
    </g>
    <g id="Group_9" data-name="Group 9" transform="translate(7749.297 291.829)">
      <path id="Path_126" data-name="Path 126" d="M8473.1,590.4a.268.268,0,0,1-.146-.044,43.928,43.928,0,0,0-6.925-3.64.268.268,0,1,1,.2-.5,44.5,44.5,0,0,1,7.018,3.688.268.268,0,0,1-.146.493Z" transform="translate(-8465.859 -586.2)" fill="#ffb78a"/>
    </g>
    <path id="Path_127" data-name="Path 127" d="M8466.3,584.287c-.045-.112-1.289-.693-1.7-1.251s-.748-1.229-.815-1.229a2.432,2.432,0,0,0-.212.994c-.056.59-.022,1.251.167,1.363A21.411,21.411,0,0,0,8466.3,584.287Z" transform="translate(-715.041 -291.485)" fill="#edccb9"/>
    <path id="Path_128" data-name="Path 128" d="M8413.626,573.832c-.092.4-3.083,1.743-6.436,1.518s-10.23,4.96-12.777,4.472c-2.333-.45-8.264-5.812-10.033-7.877a5.58,5.58,0,0,1-.38-.483,3.216,3.216,0,0,1-.387-3.276,5.274,5.274,0,0,1,1.4-1.887c.311-.29.541-.461.541-.461,2.644.67,7.651,9.695,8.5,9.829s11.3-2.145,12.6-2.236S8413.717,573.43,8413.626,573.832Z" transform="translate(-662.362 -280.997)" fill="#fcd8c5"/>
    <path id="Path_129" data-name="Path 129" d="M8217.73,579.927s11.328-8.848,12.4-8.58,9.986,9.116,9.92,9.317-11.395,11.529-11.864,11.194S8217.73,579.927,8217.73,579.927Z" transform="translate(-553.602 -284.612)" fill="#ffaba8"/>
    <path id="Path_130" data-name="Path 130" d="M8248.193,609.7a18.413,18.413,0,0,0,2.859,2.48c.135-.089,2.682-4.871,4.514-7.552s4.49-6.122,4.49-6.122a54.852,54.852,0,0,0-7.619,5.675A26.917,26.917,0,0,0,8248.193,609.7Z" transform="translate(-573.608 -302.451)" fill="#db8986"/>
    <path id="Path_131" data-name="Path 131" d="M8225.639,560.709c.6-.938,8.312-5.362,8.445-5.362s7.977,9.618,7.943,9.786-10.322,4.457-10.322,4.457Z" transform="translate(-558.796 -274.108)" fill="#ff6542"/>
    <path id="Path_132" data-name="Path 132" d="M8243.311,588.314s2.915,3.418,3.116,3.318,7.206-7.775,7.206-7.775S8243.21,588.046,8243.311,588.314Z" transform="translate(-570.401 -292.832)" fill="#d64e32"/>
    <g id="Group_10" data-name="Group 10" transform="translate(7747.465 291.997)">
      <path id="Path_133" data-name="Path 133" d="M8461.537,597.881a.266.266,0,0,1-.264-.229c-.14-.935-1.328-9.187-.4-10.828a.266.266,0,0,1,.364-.1.269.269,0,0,1,.1.365c-.705,1.254.1,7.995.467,10.486a.267.267,0,0,1-.226.3A.26.26,0,0,1,8461.537,597.881Z" transform="translate(-8460.521 -586.687)" fill="#7aa5fa"/>
    </g>
    <path id="Path_134" data-name="Path 134" d="M8455.479,611.507l10.322-4.022s5.328,9.585,6.5,11.06,3.385,4.457,3.385,4.457l-9.115,4.256C8465.164,627.124,8455.479,611.507,8455.479,611.507Z" transform="translate(-709.744 -308.35)" fill="#7aa5fa"/>
    <path id="Path_135" data-name="Path 135" d="M8455.479,619.2l6,17.963s5.061-2.011,5.095-2.212S8455.479,619.2,8455.479,619.2Z" transform="translate(-709.744 -316.045)" fill="#4d7bd1"/>
    <path id="Path_136" data-name="Path 136" d="M8462.736,597.311s5.957-2.456,7.909-3.485c2.033-1.072,3.173-1.832,3.173-1.832s3.754,5.764,4.781,6.792,2.682,2.636,2.682,2.636l-7.955,4.871Z" transform="translate(-714.511 -298.176)" fill="#ffb78a"/>
    <path id="Path_137" data-name="Path 137" d="M8462.736,607.485s1.832,3.441,3.172,6.211a44.3,44.3,0,0,1,2.146,5.318l5.272-2.547Z" transform="translate(-714.511 -308.35)" fill="#e6925c"/>
    <g id="Group_11" data-name="Group 11" transform="translate(7748.157 291.964)">
      <path id="Path_138" data-name="Path 138" d="M8466.491,592.8a.263.263,0,0,1-.152-.048c-.159-.111-3.894-2.756-3.8-5.9a.271.271,0,0,1,.276-.26.267.267,0,0,1,.26.276c-.083,2.857,3.536,5.422,3.572,5.448a.268.268,0,0,1-.154.488Z" transform="translate(-8462.535 -586.591)" fill="#ffb78a"/>
    </g>
    <path id="Path_139" data-name="Path 139" d="M8411.027,538.817c-.3.2-4.617,3.03-8.43,3.207-3.952.177-7.271.241-10.387-3.512s-3.855-9.952-5.029-11.325a2.426,2.426,0,0,0-1.046-.735c1.024-.043,1.561,1.008,3.292,3.92,1.877,3.148,5.561,8.075,9.92,9.212a20.225,20.225,0,0,0,6.44-.053c-1.689.381-2.7.568-2.7.568s.671.627,3.62.048A17.218,17.218,0,0,0,8411.027,538.817Z" transform="translate(-664.203 -255.13)" fill="#e6e6e6" style="mix-blend-mode: multiply;isolation: isolate"/>
    <path id="Path_140" data-name="Path 140" d="M8454.945,687.317q-.234,1.053-.451,1.8a18.459,18.459,0,0,1-.948-4.574,19.226,19.226,0,0,1,.021-4.558A8.468,8.468,0,0,1,8454.945,687.317Z" transform="translate(-708.394 -355.966)" fill="#e6e6e6" style="mix-blend-mode: multiply;isolation: isolate"/>
    <path id="Path_141" data-name="Path 141" d="M8353.185,783.608a19.937,19.937,0,0,1-7.571.215,14.8,14.8,0,0,1-2.359-.526,15.875,15.875,0,0,1,4.611-.563A12.168,12.168,0,0,1,8353.185,783.608Z" transform="translate(-636.04 -423.445)" fill="#e6e6e6" style="mix-blend-mode: multiply;isolation: isolate"/>
    <path id="Path_142" data-name="Path 142" d="M8361.779,607.907c-.187.847-6.735,1.276-10.714,1.367,1.587-.842,6.539-1.205,7.923-1.79,1.785-.761.266-4.462-.09-5.787a7.035,7.035,0,0,1,1.711-5.882,9.862,9.862,0,0,0-1.152,2.842C8358.964,601.655,8362.047,606.7,8361.779,607.907Z" transform="translate(-641.17 -300.686)" fill="#e6e6e6" style="mix-blend-mode: multiply;isolation: isolate"/>
    <path id="Path_143" data-name="Path 143" d="M8499.061,728.533c23.152.846,35.959-9.769,35.613-19s-27.344-9.172-35.42.346c-6.493,7.652,4.326,11.076,9.748,12.46S8499.061,728.533,8499.061,728.533Z" transform="translate(-737.172 -370.867)" fill="#ffb585"/>
    <path id="Path_144" data-name="Path 144" d="M7568.46,739.58c-28.584,1.044-44.4-12.061-43.968-23.456s33.759-11.324,43.731.427c8.015,9.447-5.342,13.675-12.037,15.384S7568.46,739.58,7568.46,739.58Z" transform="translate(-98.308 -374.138)" fill="#ffb585"/>
    <path id="Path_145" data-name="Path 145" d="M8547.846,730.745a.85.85,0,0,1-.85.852l-2.646,0-1.718,0h-2.6a.853.853,0,0,1-.853-.851V723.7a.852.852,0,0,1,.851-.852h2.6l1.717,0,2.646,0a.853.853,0,0,1,.853.85v7.053Z" transform="translate(-764.717 -384.111)" fill="#ffe2d6"/>
    <path id="Path_146" data-name="Path 146" d="M8554.262,711.947c0,.07-1.345.916-1.579,1.185-.066.077-.145.172-.226.272-.2.255-.4.533-.417.551a5.639,5.639,0,0,1-.714-.05l-.37-.041c.016-.041.051-.174.1-.369.074-.281.172-.685.275-1.118a20.669,20.669,0,0,1,.586-2.184c.071.046.765.831,1.014,1.018S8554.255,711.883,8554.262,711.947Z" transform="translate(-772.45 -375.803)" fill="#ffd0b3"/>
    <path id="Path_147" data-name="Path 147" d="M8546.244,713.84s-.04.437-.107.806a2.675,2.675,0,0,1-.095.395.19.19,0,0,1-.052.075,1.233,1.233,0,0,1-1.142-.125.322.322,0,0,0-.091-.084c-.4-.27-1.928-.979-1.926-1.031a6.352,6.352,0,0,1,.761-.557c.387-.283,1.194-1.285,1.272-1.283a14.532,14.532,0,0,0,1.127,1.552C8546.072,713.676,8546.158,713.759,8546.244,713.84Z" transform="translate(-767.114 -377.015)" fill="#ffd0b3"/>
    <path id="Path_148" data-name="Path 148" d="M8547.847,724.44s0,0-.006,0a.422.422,0,0,1-.149.028l-3.35,0-1.718,0h-3.312a.372.372,0,0,1-.128-.023V723.7a.852.852,0,0,1,.851-.852h2.6l1.717,0,2.646,0a.853.853,0,0,1,.853.85v.748Z" transform="translate(-764.717 -384.111)" fill="#e6e6e6" style="mix-blend-mode: multiply;isolation: isolate"/>
    <path id="Path_149" data-name="Path 149" d="M8550.806,719.512c-.2.255-.4.533-.416.551a5.648,5.648,0,0,1-.715-.05,1.232,1.232,0,0,1-1.142-.125.307.307,0,0,0-.091-.084,9.785,9.785,0,0,1,.96-.2c.137-.023.281-.043.418-.06A3.967,3.967,0,0,1,8550.806,719.512Z" transform="translate(-770.799 -381.911)" fill="#e6e6e6" style="mix-blend-mode: multiply;isolation: isolate"/>
    <path id="Path_150" data-name="Path 150" d="M8547.545,722.3a.443.443,0,0,1-.3.418.433.433,0,0,1-.149.029l-3.35,0-1.718,0h-3.312a.411.411,0,0,1-.134-.024.442.442,0,0,1-.311-.422l0-1.341a.446.446,0,0,1,.446-.444l3.311,0,1.718,0,3.35,0a.446.446,0,0,1,.444.445Z" transform="translate(-764.121 -382.581)" fill="#ffeae0"/>
    <path id="Path_151" data-name="Path 151" d="M8550.943,730.07l-1.717,0,0-7.324V720.51l1.718,0v2.237Z" transform="translate(-771.311 -382.579)" fill="#ffd0b3"/>
    <path id="Path_152" data-name="Path 152" d="M7601.86,739.355a.652.652,0,0,1-.651.653l-2.027,0h-3.3a.654.654,0,0,1-.653-.651v-5.4a.652.652,0,0,1,.652-.653h3.3l2.027,0a.654.654,0,0,1,.653.651v5.4Z" transform="translate(-144.766 -390.98)" fill="#ffdfd1"/>
    <path id="Path_153" data-name="Path 153" d="M7606.776,724.954c0,.054-1.031.7-1.21.908-.051.059-.11.132-.173.208-.152.2-.31.408-.319.422a4.337,4.337,0,0,1-.547-.038l-.283-.032c.012-.031.039-.133.074-.282.057-.216.131-.525.211-.856a16.009,16.009,0,0,1,.448-1.674c.055.035.586.636.777.78S7606.771,724.905,7606.776,724.954Z" transform="translate(-150.69 -384.615)" fill="#ffd0b3"/>
    <path id="Path_154" data-name="Path 154" d="M7600.633,726.4s-.031.335-.083.617a2.03,2.03,0,0,1-.073.3.131.131,0,0,1-.039.057.944.944,0,0,1-.875-.1.224.224,0,0,0-.07-.064c-.3-.207-1.476-.75-1.475-.79a4.949,4.949,0,0,1,.583-.427c.3-.216.915-.984.976-.983a10.845,10.845,0,0,0,.863,1.189C7600.5,726.279,7600.567,726.343,7600.633,726.4Z" transform="translate(-146.602 -385.543)" fill="#ffd0b3"/>
    <path id="Path_155" data-name="Path 155" d="M7601.86,734.525a.007.007,0,0,1,0,0,.322.322,0,0,1-.115.022l-2.566,0h-3.853a.286.286,0,0,1-.1-.018v-.577a.652.652,0,0,1,.652-.653h3.3l2.027,0a.654.654,0,0,1,.653.651v.573Z" transform="translate(-144.766 -390.98)" fill="#e6e6e6" style="mix-blend-mode: multiply;isolation: isolate"/>
    <path id="Path_156" data-name="Path 156" d="M7604.127,730.75c-.152.2-.31.408-.319.422a4.337,4.337,0,0,1-.547-.038.944.944,0,0,1-.875-.1.224.224,0,0,0-.07-.064c.178-.049.45-.107.736-.154.105-.018.215-.033.321-.046A3.042,3.042,0,0,1,7604.127,730.75Z" transform="translate(-149.425 -389.295)" fill="#e6e6e6" style="mix-blend-mode: multiply;isolation: isolate"/>
    <path id="Path_157" data-name="Path 157" d="M7601.629,732.885a.339.339,0,0,1-.227.321.331.331,0,0,1-.115.022l-2.566,0h-3.852a.306.306,0,0,1-.1-.018.338.338,0,0,1-.238-.323l0-1.028a.342.342,0,0,1,.342-.34l2.537,0h1.315l2.566,0a.342.342,0,0,1,.341.341Z" transform="translate(-144.309 -389.808)" fill="#ffeae0"/>
    <path id="Path_158" data-name="Path 158" d="M7604.232,738.838h-1.315l0-5.611v-1.714h1.315v1.714Z" transform="translate(-149.818 -389.806)" fill="#ffd0b3"/>
    <path id="Path_159" data-name="Path 159" d="M7593.819,748.031a.208.208,0,0,1-.209.2h-6.476v-6.188a.21.21,0,0,1,.231-.209,9.171,9.171,0,0,1,4.608,1.7,3.5,3.5,0,0,1,.683.788,8.642,8.642,0,0,1,.571,1.066A6.05,6.05,0,0,1,7593.819,748.031Z" transform="translate(-139.454 -396.585)" fill="#fffbfa"/>
    <path id="Path_160" data-name="Path 160" d="M7566.147,755.331V757.1h-10.684a.315.315,0,0,1-.314-.314v-1.138a.314.314,0,0,1,.314-.314Z" transform="translate(-118.448 -405.448)" fill="#fffbfa"/>
    <path id="Rectangle_16" data-name="Rectangle 16" d="M1.75,0H9.3a1.75,1.75,0,0,1,1.75,1.75v4.8a0,0,0,0,1,0,0H1.75A1.75,1.75,0,0,1,0,4.8V1.75A1.75,1.75,0,0,1,1.75,0Z" transform="translate(7436.707 343.417)" fill="#ffebe6"/>
    <path id="Path_161" data-name="Path 161" d="M7596.557,748.645l-4.238-.793a.142.142,0,0,1-.115-.139v-.782a.141.141,0,0,1,.141-.141h2.959a3.512,3.512,0,0,1,.683.788A8.635,8.635,0,0,1,7596.557,748.645Z" transform="translate(-142.783 -399.84)" fill="#ffefeb"/>
    <path id="Path_162" data-name="Path 162" d="M7565.121,757.337h-3.6a1.808,1.808,0,0,1,3.6,0Z" transform="translate(-122.632 -405.689)" fill="#f5d9d3"/>
    <path id="Path_163" data-name="Path 163" d="M7592.952,757.337h-3.6a1.808,1.808,0,0,1,3.6,0Z" transform="translate(-140.91 -405.689)" fill="#f5d9d3"/>
    <path id="Path_164" data-name="Path 164" d="M7593.358,758.373A1.356,1.356,0,1,0,7592,759.73,1.356,1.356,0,0,0,7593.358,758.373Z" transform="translate(-141.76 -406.556)" fill="#ffebe6"/>
    <path id="Path_165" data-name="Path 165" d="M7565.526,758.373a1.356,1.356,0,1,0-1.356,1.357A1.356,1.356,0,0,0,7565.526,758.373Z" transform="translate(-123.481 -406.556)" fill="#ffebe6"/>
    <path id="Path_166" data-name="Path 166" d="M8556.891,736.742a25.237,25.237,0,0,1-1.271,3.778c-.223,0,.239-3.1.153-3.1s-.559.006-2.456,3.117c-.159.262-4.985.068-4.979,0,0-.268,1.186-.752,2.171-1.105.5-.183.946-.331,1.168-.4a.6.6,0,0,0,.108-.034l.04-.011s.079-.114.211-.308c.638-.923,2.547-3.664,3.134-4.262a.612.612,0,0,1,.068-.063c.039-.034.074-.057.091-.045h.006a.076.076,0,0,1,.017.023A12.267,12.267,0,0,1,8556.891,736.742Z" transform="translate(-770.73 -391.636)" fill="#ffe1d1"/>
    <path id="Path_167" data-name="Path 167" d="M8559.506,734.332c.091.359-2.793,4.883-3.5,5.156a1.855,1.855,0,0,1-1.339-.051c.5-.183.945-.331,1.168-.4l.108-.034.04-.011s.079-.114.211-.307a48.556,48.556,0,0,1,3.134-4.262.611.611,0,0,1,.068-.063.185.185,0,0,1,.091-.045h.006A.075.075,0,0,1,8559.506,734.332Z" transform="translate(-774.884 -391.642)" fill="#fff7f5"/>
    <path id="Path_168" data-name="Path 168" d="M8147.207,891.344c-1.637,2.75-3.394,6.929-3.488,9.018-.44,9.69-1.187,11.538-4.625,13.563a5.4,5.4,0,0,1-.131-1.026C8138.718,903.213,8142.752,896.535,8147.207,891.344Z" transform="translate(-501.864 -494.776)" fill="#e6e6e6" style="mix-blend-mode: multiply;isolation: isolate"/>
  </g>
</svg>
