<svg xmlns="http://www.w3.org/2000/svg" width="25" height="28.572" viewBox="0 0 25 28.572">
  <g id="Group_5408" data-name="Group 5408" transform="translate(-407.955 -283.458)">
    <g id="Path_7044" data-name="Path 7044" fill="none" stroke-miterlimit="10">
      <path d="M432.955,312.03h-25v-1.117a.669.669,0,0,1,.669-.669h1.116V284.8a1.34,1.34,0,0,1,1.34-1.339h18.75a1.34,1.34,0,0,1,1.339,1.339v25.447h1.116a.67.67,0,0,1,.67.669Z" stroke="none"/>
      <path d="M 429.8690185546875 310.7300109863281 L 429.8690185546875 284.7969970703125 C 429.8690185546875 284.77587890625 429.8511352539062 284.7579956054688 429.8299865722656 284.7579956054688 L 411.0799865722656 284.7579956054688 C 411.0583190917969 284.7579956054688 411.0399780273438 284.77587890625 411.0399780273438 284.7969970703125 L 411.0399780273438 310.7300109863281 L 429.8690185546875 310.7300109863281 M 432.9549865722656 312.0299987792969 L 407.9549865722656 312.0299987792969 L 407.9549865722656 310.9129943847656 C 407.9549865722656 310.5440063476562 408.2539978027344 310.2439880371094 408.6239929199219 310.2439880371094 L 409.739990234375 310.2439880371094 L 409.739990234375 284.7969970703125 C 409.739990234375 284.0580139160156 410.3399963378906 283.4580078125 411.0799865722656 283.4580078125 L 429.8299865722656 283.4580078125 C 430.5690002441406 283.4580078125 431.1690063476562 284.0580139160156 431.1690063476562 284.7969970703125 L 431.1690063476562 310.2439880371094 L 432.2850036621094 310.2439880371094 C 432.6549987792969 310.2439880371094 432.9549865722656 310.5440063476562 432.9549865722656 310.9129943847656 L 432.9549865722656 312.0299987792969 Z" stroke="none" fill="#bbc0c3"/>
    </g>
    <path id="Path_7045" data-name="Path 7045" d="M422.24,311.391V305.5a.641.641,0,0,0-.669-.609h-2.233a.641.641,0,0,0-.669.609v5.895" transform="translate(0 0.639)" fill="none" stroke="#bbc0c3" stroke-miterlimit="10" stroke-width="1.3"/>
    <g id="Rectangle_891" data-name="Rectangle 891" transform="translate(414.097 287.546)" fill="none" stroke="#bbc0c3" stroke-miterlimit="10" stroke-width="1.3">
      <rect width="4.571" height="6.571" rx="0.67" stroke="none"/>
      <rect x="0.65" y="0.65" width="3.271" height="5.271" rx="0.02" fill="none"/>
    </g>
    <g id="Rectangle_894" data-name="Rectangle 894" transform="translate(414.097 295.546)" fill="none" stroke="#bbc0c3" stroke-miterlimit="10" stroke-width="1.3">
      <rect width="4.571" height="6.571" rx="0.67" stroke="none"/>
      <rect x="0.65" y="0.65" width="3.271" height="5.271" rx="0.02" fill="none"/>
    </g>
    <g id="Rectangle_892" data-name="Rectangle 892" transform="translate(422.24 287.546)" fill="none" stroke="#bbc0c3" stroke-miterlimit="10" stroke-width="1.3">
      <rect width="4.571" height="6.571" rx="0.67" stroke="none"/>
      <rect x="0.65" y="0.65" width="3.271" height="5.271" rx="0.02" fill="none"/>
    </g>
    <g id="Rectangle_893" data-name="Rectangle 893" transform="translate(422.24 295.546)" fill="none" stroke="#bbc0c3" stroke-miterlimit="10" stroke-width="1.3">
      <rect width="4.571" height="6.571" rx="0.67" stroke="none"/>
      <rect x="0.65" y="0.65" width="3.271" height="5.271" rx="0.02" fill="none"/>
    </g>
  </g>
</svg>
