<svg xmlns="http://www.w3.org/2000/svg" width="28.765" height="24.45" viewBox="0 0 28.765 24.45">
  <g id="Icon_material-home" data-name="Icon material-home" transform="translate(-3 -4.5)" fill="#fff">
    <path d="M 26.70000267028809 28.19999885559082 L 21.00882339477539 28.19999885559082 L 21.00882339477539 20.32058906555176 L 21.00882339477539 19.57058906555176 L 20.25882339477539 19.57058906555176 L 14.50588321685791 19.57058906555176 L 13.75588321685791 19.57058906555176 L 13.75588321685791 20.32058906555176 L 13.75588321685791 28.19999885559082 L 8.064702987670898 28.19999885559082 L 8.064702987670898 17.44411849975586 L 8.064702987670898 16.69411849975586 L 7.314702987670898 16.69411849975586 L 4.954466819763184 16.69411849975586 L 17.38235282897949 5.509016513824463 L 29.81023979187012 16.69411849975586 L 27.45000267028809 16.69411849975586 L 26.70000267028809 16.69411849975586 L 26.70000267028809 17.44411849975586 L 26.70000267028809 28.19999885559082 Z" stroke="none"/>
    <path d="M 25.95000267028809 27.44999885559082 L 25.95000267028809 15.94411849975586 L 27.85576438903809 15.94411849975586 L 17.38235282897949 6.518043994903564 L 6.90894079208374 15.94411849975586 L 8.814702987670898 15.94411849975586 L 8.814702987670898 27.44999885559082 L 13.00588321685791 27.44999885559082 L 13.00588321685791 18.82058906555176 L 21.75882339477539 18.82058906555176 L 21.75882339477539 27.44999885559082 L 25.95000267028809 27.44999885559082 M 27.45000267028809 28.94999885559082 L 20.25882339477539 28.94999885559082 L 20.25882339477539 20.32058906555176 L 14.50588321685791 20.32058906555176 L 14.50588321685791 28.94999885559082 L 7.314702987670898 28.94999885559082 L 7.314702987670898 17.44411849975586 L 3.000002861022949 17.44411849975586 L 17.38235282897949 4.499998569488525 L 31.76470375061035 17.44411849975586 L 27.45000267028809 17.44411849975586 L 27.45000267028809 28.94999885559082 Z" stroke="none" fill="#bbc0c3"/>
  </g>
</svg>
