<svg xmlns="http://www.w3.org/2000/svg" width="25.737" height="24.45" viewBox="0 0 25.737 24.45">
  <g id="Icon_material-work" data-name="Icon material-work" transform="translate(-3 -3)" fill="#fff">
    <path d="M 26.16316032409668 26.69999885559082 L 5.573680400848389 26.69999885559082 C 4.551060676574707 26.69999885559082 3.750000715255737 25.89893913269043 3.750000715255737 24.87631988525391 L 3.76287055015564 10.72172927856445 C 3.76287055015564 9.698429107666016 4.558270454406738 8.897369384765625 5.573680400848389 8.897369384765625 L 10.72105026245117 8.897369384765625 L 11.47105026245117 8.897369384765625 L 11.47105026245117 8.147369384765625 L 11.47105026245117 5.573679447174072 C 11.47105026245117 4.551059246063232 12.27211093902588 3.749999523162842 13.29474067687988 3.749999523162842 L 18.44210052490234 3.749999523162842 C 19.46473121643066 3.749999523162842 20.26579093933105 4.551059246063232 20.26579093933105 5.573679447174072 L 20.26579093933105 8.147369384765625 L 20.26579093933105 8.897369384765625 L 21.01579093933105 8.897369384765625 L 26.16316032409668 8.897369384765625 C 27.18578147888184 8.897369384765625 27.98684120178223 9.698429107666016 27.98684120178223 10.72104930877686 L 27.98684120178223 24.87631988525391 C 27.98684120178223 25.89893913269043 27.18578147888184 26.69999885559082 26.16316032409668 26.69999885559082 Z M 12.54474067687988 4.823679447174072 L 12.54474067687988 5.573679447174072 L 12.54474067687988 8.147369384765625 L 12.54474067687988 8.897369384765625 L 13.29474067687988 8.897369384765625 L 18.44210052490234 8.897369384765625 L 19.19210052490234 8.897369384765625 L 19.19210052490234 8.147369384765625 L 19.19210052490234 5.573679447174072 L 19.19210052490234 4.823679447174072 L 18.44210052490234 4.823679447174072 L 13.29474067687988 4.823679447174072 L 12.54474067687988 4.823679447174072 Z" stroke="none"/>
    <path d="M 5.573680877685547 9.647369384765625 C 4.978830337524414 9.647369384765625 4.512870788574219 10.11898994445801 4.512870788574219 10.72241020202637 L 4.5 24.87630844116211 C 4.5 25.47837829589844 4.971620559692383 25.94999885559082 5.573680877685547 25.94999885559082 L 26.16316032409668 25.94999885559082 C 26.76522064208984 25.94999885559082 27.23684120178223 25.47837829589844 27.23684120178223 24.87630844116211 L 27.23684120178223 10.72105026245117 C 27.23684120178223 10.11898994445801 26.76522064208984 9.647369384765625 26.16316032409668 9.647369384765625 L 5.573680877685547 9.647369384765625 M 13.29474067687988 3 L 18.44210052490234 3 C 19.8705005645752 3 21.01579093933105 4.145290374755859 21.01579093933105 5.573678970336914 L 21.01579093933105 8.147369384765625 L 26.16316032409668 8.147369384765625 C 27.59155082702637 8.147369384765625 28.73684120178223 9.292659759521484 28.73684120178223 10.72105026245117 L 28.73684120178223 24.87630844116211 C 28.73684120178223 26.30471038818359 27.59155082702637 27.44999885559082 26.16316032409668 27.44999885559082 L 5.573680877685547 27.44999885559082 C 4.145290374755859 27.44999885559082 3 26.30471038818359 3 24.87630844116211 L 3.012870788574219 10.72105026245117 C 3.012870788574219 9.292659759521484 4.145290374755859 8.147369384765625 5.573680877685547 8.147369384765625 L 10.72105026245117 8.147369384765625 L 10.72105026245117 5.573678970336914 C 10.72105026245117 4.145290374755859 11.86634063720703 3 13.29474067687988 3 Z M 18.44210052490234 8.147369384765625 L 18.44210052490234 5.573678970336914 L 13.29474067687988 5.573678970336914 L 13.29474067687988 8.147369384765625 L 18.44210052490234 8.147369384765625 Z" stroke="none" fill="#0F6EF4"/>
  </g>
</svg>
