<svg xmlns="http://www.w3.org/2000/svg" width="17.859" height="17.823" viewBox="0 0 17.859 17.823">
  <g id="_" data-name=" " style="isolation: isolate">
    <g id="Group_1679" data-name="Group 1679" style="isolation: isolate">
      <path id="Path_5698" data-name="Path 5698" d="M-301.1,270.518a.848.848,0,0,1-.942-.942v-1.2a.848.848,0,0,1,.942-.942h6.2v-6.419a.849.849,0,0,1,.942-.942h1.688a.848.848,0,0,1,.942.942v6.419h6.2a.849.849,0,0,1,.942.942v1.2a.849.849,0,0,1-.942.942h-6.2v6.44a.848.848,0,0,1-.942.942h-1.688a.849.849,0,0,1-.942-.942v-6.44Z" transform="translate(302.046 -260.077)" fill="#fff"/>
    </g>
  </g>
</svg>
