<svg xmlns="http://www.w3.org/2000/svg" width="383.415" height="340.665" viewBox="0 0 383.415 340.665">
  <path id="Path_6918" data-name="Path 6918" d="M541.249,155.408H428.411l.909-7.134a.72.72,0,0,0-1.056-.726l-26.178,14.078a.721.721,0,0,0-.04,1.246l22.588,14.078a.72.72,0,0,0,1.1-.521l.907-7.11H535.961l-4.874,30.833H492.758a9.579,9.579,0,0,0-9.082,7.818l-15.244,94.385H437.6s14.969-92.293,14.969-92.753a9.229,9.229,0,0,0-9.059-9.427l-17.911-.023c-19.406,0-33.616-14.715-32.374-33.524,2.367-35.57-13.635-55.964-43.893-55.964l-105.242-.009a9.245,9.245,0,0,0-9.135,7.824s-6.819,43.459-6.842,43.574a5.958,5.958,0,0,0,.069,1.816,4.22,4.22,0,0,0,.137.574,5.613,5.613,0,0,0,.575,1.449,7.008,7.008,0,0,0,.667,1.012,8.211,8.211,0,0,0,.9.9,6.665,6.665,0,0,0,4.253,1.518h34.9S247.7,306.081,247.676,306.311v.024a9.255,9.255,0,0,0,9.22,9.955s40.72-.059,41.076-.107A9.218,9.218,0,0,0,306,308.494l22.27-139.175h15.383a12.17,12.17,0,0,0,11.37,7.088,16.61,16.61,0,0,0,16-14.192,12.225,12.225,0,0,0-12.382-14.193,16.5,16.5,0,0,0-13.4,7.385H324.4a9.559,9.559,0,0,0-9.082,7.84l-22.28,139.107H262.207L284.028,166.1a9.255,9.255,0,0,0-9.128-10.692H243.054l4.875-30.833h99.26c28.811,0,33.294,23.521,31.984,43.25-1.725,25.935,17.727,46.238,44.284,46.238h14.486l-14.784,91.466a2.3,2.3,0,0,0-.046.391,9.239,9.239,0,0,0,9.059,10.348l40.1.023a9.577,9.577,0,0,0,9.081-7.84L496.6,214.063h38.375a9.557,9.557,0,0,0,9.082-7.84s5.771-36.582,6.323-40.123v-.046A9.252,9.252,0,0,0,541.249,155.408Z" transform="translate(635.574 160.563) rotate(150)" fill="none" stroke="#0f6ef4" stroke-width="1"/>
</svg>
