<svg xmlns="http://www.w3.org/2000/svg" width="35.78" height="22.82" viewBox="0 0 35.78 22.82">
  <path id="Path_6911" data-name="Path 6911" d="M292.342,267.319H279.82l.1-.792a.08.08,0,0,0-.117-.08l-2.905,1.562a.08.08,0,0,0,0,.138l2.507,1.562a.08.08,0,0,0,.122-.058l.1-.789h12.132l-.541,3.422h-4.254a1.063,1.063,0,0,0-1.008.868l-1.692,10.475h-3.422s1.661-10.243,1.661-10.294a1.024,1.024,0,0,0-1.005-1.046l-1.988,0a3.459,3.459,0,0,1-3.593-3.72c.263-3.947-1.513-6.211-4.871-6.211H259.364a1.026,1.026,0,0,0-1.014.868s-.757,4.823-.759,4.836a.661.661,0,0,0,.008.2.449.449,0,0,0,.015.064.619.619,0,0,0,.064.161.788.788,0,0,0,.074.112.939.939,0,0,0,.1.1.74.74,0,0,0,.472.168H262.2s-2.432,15.177-2.434,15.2v0a1.026,1.026,0,0,0,1.023,1.1s4.519-.006,4.559-.012a1.023,1.023,0,0,0,.89-.853l2.471-15.445h1.707a1.35,1.35,0,0,0,1.262.787,1.843,1.843,0,0,0,1.776-1.575,1.357,1.357,0,0,0-1.374-1.575,1.832,1.832,0,0,0-1.487.82h-2.312a1.061,1.061,0,0,0-1.008.87L264.8,283.627h-3.421l2.421-15.121a1.027,1.027,0,0,0-1.013-1.187H259.25l.541-3.422h11.015c3.2,0,3.7,2.61,3.549,4.8a4.751,4.751,0,0,0,4.914,5.131h1.608l-1.641,10.15a.249.249,0,0,0-.005.043,1.025,1.025,0,0,0,1.005,1.148l4.45,0a1.063,1.063,0,0,0,1.008-.87l1.692-10.475h4.259a1.061,1.061,0,0,0,1.008-.87s.64-4.06.7-4.452V268.5a1.027,1.027,0,0,0-1.013-1.181" transform="translate(-257.587 -262.353)" fill="#0f6ef4"/>
</svg>
