<svg xmlns="http://www.w3.org/2000/svg" width="54.513" height="17.31" viewBox="0 0 54.513 17.31">
  <g id="Group_1766" data-name="Group 1766" transform="translate(-978.747 -239.189)">
    <path id="Path_3101" data-name="Path 3101" d="M1355.546,325.337a2.7,2.7,0,0,0-1.779-.5h-.83a2.385,2.385,0,0,1-.593-.095.473.473,0,0,1-.308-.451.668.668,0,0,1,.237-.5.993.993,0,0,1,.593-.095h2.8V322.35h-3.035a1.913,1.913,0,0,0-2.181,1.9c0,2.016,1.779,1.921,3.177,1.968a.754.754,0,0,1,.546.142.616.616,0,0,1,.189.45.591.591,0,0,1-.189.4.9.9,0,0,1-.593.142h-2.94V328.7h2.94c1.541,0,2.418-.64,2.418-1.992A2.075,2.075,0,0,0,1355.546,325.337Z" transform="translate(-322.736 -72.206)" fill="#00679a"/>
    <path id="Path_3102" data-name="Path 3102" d="M1308.587,324.839h-.83a2.379,2.379,0,0,1-.593-.095.472.472,0,0,1-.308-.451.54.54,0,0,1,.237-.5.989.989,0,0,1,.592-.095h2.8V322.35h-3.036c-1.636,0-2.181,1-2.181,1.9,0,2.016,1.779,1.921,3.177,1.968a.754.754,0,0,1,.545.142.617.617,0,0,1,.19.45.591.591,0,0,1-.19.4.993.993,0,0,1-.593.142h-2.94V328.7h2.94c1.541,0,2.419-.64,2.419-1.992a2.077,2.077,0,0,0-.45-1.376A2.7,2.7,0,0,0,1308.587,324.839Z" transform="translate(-283.507 -72.206)" fill="#00679a"/>
    <path id="Path_3103" data-name="Path 3103" d="M1261.165,328.7h5.074v-1.3h-3.58v-1.281h3.51v-1.28h-3.51v-1.162h3.58V322.35h-5.074Z" transform="translate(-245.215 -72.206)" fill="#00679a"/>
    <rect id="Rectangle_147" data-name="Rectangle 147" width="1.541" height="6.355" transform="translate(1009.454 239.189)" fill="#00679a"/>
    <path id="Path_3104" data-name="Path 3104" d="M1116.865,244.24h-3.557v-1.28h3.509v-1.3h-3.509v-1.138h3.557v-1.328h-5.1v6.355h5.1Z" transform="translate(-115.497 0)" fill="#00679a"/>
    <path id="Path_3105" data-name="Path 3105" d="M1214.183,324.081a1.447,1.447,0,0,0-.758-1.423,3.981,3.981,0,0,0-1.874-.308h-3.486V328.7h1.542v-2.324h1.636c.545,0,.853.048,1.091.285a2.093,2.093,0,0,1,.26,1.281v.759h1.518v-1.233a1.981,1.981,0,0,0-.237-1.162,1.582,1.582,0,0,0-.782-.545A1.741,1.741,0,0,0,1214.183,324.081Zm-1.991.9a1.846,1.846,0,0,1-.735.095l-1.849.047v-1.446h1.849a1.417,1.417,0,0,1,.735.119.575.575,0,0,1,.308.546A.765.765,0,0,1,1212.191,324.982Z" transform="translate(-199.11 -72.206)" fill="#00679a"/>
    <path id="Path_3106" data-name="Path 3106" d="M1085.547,322.35h-4.861l-1.968,2.087-1.849-2.087h-6.141V328.7h6.046l1.944-2.087,1.873,2.087h2.94v-2.134h1.921c1.3,0,2.632-.356,2.632-2.134C1088.085,322.706,1086.733,322.35,1085.547,322.35Zm-9.556,5.051h-3.77V326.12h3.367v-1.28h-3.367v-1.162h3.818l1.684,1.85Zm6.046.759-2.347-2.632,2.347-2.49Zm3.509-2.869h-2.015v-1.613h2.015c.545,0,.9.214.9.759A.811.811,0,0,1,1085.547,325.29Z" transform="translate(-79.864 -72.206)" fill="#00679a"/>
    <path id="Path_3107" data-name="Path 3107" d="M1232.316,245.544h1.778l.593-1.4h3.177l.593,1.4h3.082v-4.766l2.869,4.766h2.181v-6.355h-1.565v4.41l-2.679-4.41H1240v6l-2.561-6h-2.253l-2.182,5h-.687a1.564,1.564,0,0,1-1.043-.309,2.279,2.279,0,0,1-.4-1.518,2.033,2.033,0,0,1,.4-1.446,1.654,1.654,0,0,1,1.186-.356h1.446v-1.375h-1.446a3.1,3.1,0,0,0-2.323.735,4.137,4.137,0,0,0-.047,4.908A3.268,3.268,0,0,0,1232.316,245.544Zm3.96-5.264,1.043,2.513h-2.087Z" transform="translate(-217.551)" fill="#00679a"/>
    <path id="Path_3108" data-name="Path 3108" d="M1164.865,240.92a1.538,1.538,0,0,0-.807-1.446,3.529,3.529,0,0,0-1.825-.285h-3.486v6.355h1.494v-2.3h1.636a1.651,1.651,0,0,1,1.138.261,2.046,2.046,0,0,1,.214,1.233v.806h1.565v-1.257a1.634,1.634,0,0,0-.284-1.138,1.863,1.863,0,0,0-.735-.546A1.794,1.794,0,0,0,1164.865,240.92Zm-1.992.854a1.324,1.324,0,0,1-.759.142h-1.873v-1.4h1.873a1.906,1.906,0,0,1,.759.095.636.636,0,0,1,.285.593A.573.573,0,0,1,1162.872,241.773Z" transform="translate(-156.288)" fill="#00679a"/>
    <path id="Path_3109" data-name="Path 3109" d="M993.59,240.564v4.98h1.541v-6.355h-2.49l-1.873,4.316-1.992-4.316h-2.443v6l-2.608-6h-2.253l-2.727,6.355h1.636l.569-1.4h3.2l.569,1.4h3.106v-4.98l2.229,4.98h1.3ZM981.5,242.793l1.067-2.513,1.043,2.513Z" transform="translate(0)" fill="#00679a"/>
  </g>
</svg>
