<svg xmlns="http://www.w3.org/2000/svg" width="41.955" height="32.641" viewBox="0 0 41.955 32.641">
  <g id="Group_1765" data-name="Group 1765" transform="translate(0 0.001)">
    <path id="Path_3096" data-name="Path 3096" d="M142.511,1321.668v.084h.078a.081.081,0,0,0,.042-.01.038.038,0,0,0,.016-.032.036.036,0,0,0-.016-.031.072.072,0,0,0-.042-.01h-.078Zm.079-.06a.148.148,0,0,1,.094.027.091.091,0,0,1,.033.075.085.085,0,0,1-.026.065.133.133,0,0,1-.075.031l.1.119h-.081l-.1-.118h-.031v.118h-.068v-.317h.146Zm-.021.427a.253.253,0,0,0,.1-.021.272.272,0,0,0,.084-.057.259.259,0,0,0,.057-.084.272.272,0,0,0,0-.208.278.278,0,0,0-.057-.084.257.257,0,0,0-.187-.076.275.275,0,0,0-.1.02.268.268,0,0,0-.086.057.271.271,0,0,0-.056.294.252.252,0,0,0,.056.084.265.265,0,0,0,.086.056.258.258,0,0,0,.1.021m0-.608a.351.351,0,0,1,.246.1.338.338,0,0,1,.074.374.352.352,0,0,1-.074.109.374.374,0,0,1-.111.073.346.346,0,0,1-.136.027.355.355,0,0,1-.138-.027.328.328,0,0,1-.185-.186.338.338,0,0,1,.074-.374.327.327,0,0,1,.111-.073.338.338,0,0,1,.138-.027m-32.118-1.222a1.042,1.042,0,1,1,1.044,1.1,1.034,1.034,0,0,1-1.044-1.1m2.787,0v-1.722h-.749v.419a1.305,1.305,0,0,0-1.087-.5,1.81,1.81,0,0,0,0,3.616,1.305,1.305,0,0,0,1.087-.5v.418h.748V1320.2Zm25.294,0a1.042,1.042,0,1,1,1.045,1.1,1.034,1.034,0,0,1-1.045-1.1m2.788,0v-3.1h-.749v1.8a1.305,1.305,0,0,0-1.087-.5,1.81,1.81,0,0,0,0,3.616,1.305,1.305,0,0,0,1.087-.5v.418h.749Zm-18.791-1.138a.855.855,0,0,1,.871.835h-1.786a.887.887,0,0,1,.915-.835m.015-.671a1.81,1.81,0,0,0,.05,3.616,2.09,2.09,0,0,0,1.411-.483l-.367-.555a1.641,1.641,0,0,1-1,.36.956.956,0,0,1-1.03-.843h2.556c.007-.093.015-.187.015-.288a1.651,1.651,0,0,0-1.635-1.808m9.038,1.808a1.042,1.042,0,1,1,1.044,1.1,1.033,1.033,0,0,1-1.044-1.1m2.787,0v-1.721h-.748v.419a1.307,1.307,0,0,0-1.087-.5,1.81,1.81,0,0,0,0,3.616,1.306,1.306,0,0,0,1.087-.5v.418h.748V1320.2Zm-7.014,0a1.739,1.739,0,0,0,1.837,1.808,1.8,1.8,0,0,0,1.238-.41l-.36-.605a1.513,1.513,0,0,1-.9.31,1.1,1.1,0,0,1,0-2.2,1.517,1.517,0,0,1,.9.31l.36-.6a1.8,1.8,0,0,0-1.238-.41,1.739,1.739,0,0,0-1.837,1.808m9.651-1.808a1.016,1.016,0,0,0-.908.5v-.417h-.742v3.442h.749v-1.93c0-.57.245-.886.734-.886a1.2,1.2,0,0,1,.468.087l.231-.706a1.593,1.593,0,0,0-.533-.094m-20.065.36a2.575,2.575,0,0,0-1.4-.36c-.872,0-1.434.418-1.434,1.1,0,.561.418.908,1.188,1.016l.354.05c.41.058.6.166.6.36,0,.266-.273.418-.785.418a1.835,1.835,0,0,1-1.145-.36l-.352.583a2.482,2.482,0,0,0,1.49.447c.994,0,1.57-.468,1.57-1.124,0-.6-.453-.922-1.2-1.03l-.353-.051c-.324-.042-.584-.107-.584-.338,0-.252.245-.4.655-.4a2.224,2.224,0,0,1,1.073.295l.324-.6Zm9.659-.36a1.014,1.014,0,0,0-.907.5v-.419h-.742v3.442h.749v-1.93c0-.57.245-.886.734-.886a1.2,1.2,0,0,1,.468.087l.231-.706a1.593,1.593,0,0,0-.533-.094m-6.388.087h-1.224v-1.044h-.757v1.044h-.7v.684h.7v1.57c0,.8.31,1.275,1.2,1.275a1.754,1.754,0,0,0,.937-.267l-.216-.641a1.388,1.388,0,0,1-.663.194c-.374,0-.5-.23-.5-.576v-1.556h1.224Zm-11.192,3.443v-2.16a1.282,1.282,0,0,0-1.354-1.368,1.333,1.333,0,0,0-1.21.612,1.264,1.264,0,0,0-1.138-.612,1.138,1.138,0,0,0-1.008.511v-.426h-.749v3.442h.755v-1.909a.806.806,0,0,1,.843-.915c.5,0,.749.324.749.908v1.916h.757v-1.909a.812.812,0,0,1,.842-.915c.511,0,.755.324.755.908v1.916Z" transform="translate(-101.388 -1289.475)" fill="#231f20"/>
    <path id="Path_3097" data-name="Path 3097" d="M1929.943,977.723v-.5h-.131l-.152.345-.151-.345h-.132v.5h.093v-.379l.142.327h.1l.142-.328v.38h.092Zm-.832,0v-.417h.168v-.085h-.429v.085h.168v.417h.093Z" transform="translate(-1888.392 -956.723)" fill="#f79410"/>
    <path id="Path_3098" data-name="Path 3098" d="M741.055,152.538H729.71V132.15h11.345Z" transform="translate(-714.405 -129.379)" fill="#ff5f00"/>
    <path id="Path_3099" data-name="Path 3099" d="M16.025,12.965A12.945,12.945,0,0,1,20.977,2.772a12.966,12.966,0,1,0,0,20.388,12.945,12.945,0,0,1-4.952-10.194" transform="translate(0 0)" fill="#eb001b"/>
    <path id="Path_3100" data-name="Path 3100" d="M1021.088,12.965a12.965,12.965,0,0,1-20.978,10.194,12.967,12.967,0,0,0,0-20.388,12.965,12.965,0,0,1,20.978,10.194" transform="translate(-979.133 0)" fill="#f79e1b"/>
  </g>
</svg>
