<svg xmlns="http://www.w3.org/2000/svg" width="50.794" height="15.573" viewBox="0 0 50.794 15.573">
  <g id="Group_1764" data-name="Group 1764" transform="translate(-54.826 -119.85)">
    <path id="Path_3091" data-name="Path 3091" d="M180.609,136.78l2.57-15.087h4.114l-2.575,15.087Z" transform="translate(-107.889 -1.58)" fill="#004088"/>
    <path id="Path_3092" data-name="Path 3092" d="M239.949,120.484a10.609,10.609,0,0,0-3.686-.634c-4.063,0-6.926,2.046-6.951,4.979-.023,2.168,2.043,3.378,3.6,4.1,1.6.74,2.14,1.211,2.133,1.872-.011,1.011-1.279,1.473-2.462,1.473a8.616,8.616,0,0,1-3.87-.791l-.529-.239-.578,3.378a13,13,0,0,0,4.581.8c4.324,0,7.128-2.022,7.161-5.155.016-1.715-1.079-3.021-3.451-4.1-1.438-.7-2.319-1.164-2.31-1.871,0-.627.745-1.3,2.356-1.3a7.563,7.563,0,0,1,3.076.578l.37.174.557-3.27Z" transform="translate(-148.202)" fill="#004088"/>
    <path id="Path_3093" data-name="Path 3093" d="M319.512,121.794h-3.177a2.046,2.046,0,0,0-2.154,1.251l-6.107,13.827h4.319s.7-1.859.865-2.267l5.267.007c.122.528.5,2.261.5,2.261h3.817l-3.329-15.078Zm-5.071,9.726c.34-.87,1.638-4.218,1.638-4.218-.023.04.338-.874.545-1.44l.279,1.3.953,4.358Z" transform="translate(-217.22 -1.667)" fill="#004088"/>
    <path id="Path_3094" data-name="Path 3094" d="M95.159,121.77l-4.027,10.289-.43-2.09a11.76,11.76,0,0,0-5.695-6.33l3.681,13.2,4.351-.006,6.475-15.059Z" transform="translate(-25.887 -1.647)" fill="#004088"/>
    <path id="Path_3095" data-name="Path 3095" d="M61.51,121.705H54.877l-.051.313c5.159,1.25,8.573,4.268,9.988,7.895l-1.44-6.935a1.721,1.721,0,0,0-1.864-1.273Z" transform="translate(0 -1.591)" fill="#f99300"/>
  </g>
</svg>
