<svg id="Group_1665" data-name="Group 1665" xmlns="http://www.w3.org/2000/svg" width="24.562" height="27.306" viewBox="0 0 24.562 27.306">
  <g id="Group_1655" data-name="Group 1655">
    <path id="Path_3112" data-name="Path 3112" d="M-833.35-388.694h-18.387a3.091,3.091,0,0,1-3.087-3.087v-21.131A3.091,3.091,0,0,1-851.737-416h18.387a3.091,3.091,0,0,1,3.087,3.087v21.131A3.091,3.091,0,0,1-833.35-388.694Zm-18.387-26.071a1.855,1.855,0,0,0-1.853,1.852v21.131a1.855,1.855,0,0,0,1.853,1.852h18.387a1.855,1.855,0,0,0,1.852-1.852v-21.131a1.855,1.855,0,0,0-1.852-1.852Z" transform="translate(854.824 416)" fill="#424753"/>
  </g>
  <g id="Group_1659" data-name="Group 1659" transform="translate(3.842 3.842)">
    <g id="Group_1656" data-name="Group 1656" transform="translate(0 0)">
      <path id="Path_3113" data-name="Path 3113" d="M-751.872-312.431h-3.842a.617.617,0,0,1-.617-.617v-3.842a.617.617,0,0,1,.617-.617h3.842a.617.617,0,0,1,.617.617v3.842A.617.617,0,0,1-751.872-312.431Zm-3.225-1.235h2.607v-2.607H-755.1Z" transform="translate(756.332 317.508)" fill="#424753"/>
    </g>
    <g id="Group_1657" data-name="Group 1657" transform="translate(0 7.272)">
      <path id="Path_3114" data-name="Path 3114" d="M-751.872-126h-3.842a.617.617,0,0,1-.617-.617v-3.842a.617.617,0,0,1,.617-.617h3.842a.617.617,0,0,1,.617.617v3.842A.617.617,0,0,1-751.872-126Zm-3.225-1.235h2.607v-2.607H-755.1Z" transform="translate(756.332 131.075)" fill="#424753"/>
    </g>
    <g id="Group_1658" data-name="Group 1658" transform="translate(0 14.545)">
      <path id="Path_3115" data-name="Path 3115" d="M-751.872,60.434h-3.842a.617.617,0,0,1-.617-.617V55.974a.617.617,0,0,1,.617-.617h3.842a.617.617,0,0,1,.617.617v3.842A.617.617,0,0,1-751.872,60.434ZM-755.1,59.2h2.607V56.592H-755.1Z" transform="translate(756.332 -55.357)" fill="#424753"/>
    </g>
  </g>
  <g id="Group_1662" data-name="Group 1662" transform="translate(11.526 3.842)">
    <g id="Group_1660" data-name="Group 1660" transform="translate(0 0)">
      <path id="Path_3116" data-name="Path 3116" d="M-550.771-316.273h-7.958a.618.618,0,0,1-.618-.617.618.618,0,0,1,.618-.617h7.958a.618.618,0,0,1,.618.617A.618.618,0,0,1-550.771-316.273Z" transform="translate(559.347 317.508)" fill="#424753"/>
    </g>
    <g id="Group_1661" data-name="Group 1661" transform="translate(0 3.293)">
      <path id="Path_3117" data-name="Path 3117" d="M-550.771-231.85h-7.958a.618.618,0,0,1-.618-.617.617.617,0,0,1,.618-.617h7.958a.617.617,0,0,1,.618.617A.618.618,0,0,1-550.771-231.85Z" transform="translate(559.347 233.085)" fill="#424753"/>
    </g>
  </g>
  <g id="Group_1663" data-name="Group 1663" transform="translate(15.505 11.389)">
    <path id="Path_3118" data-name="Path 3118" d="M-452.74-122.805h-3.979a.617.617,0,0,1-.617-.617.617.617,0,0,1,.617-.617h3.979a.617.617,0,0,1,.617.617A.617.617,0,0,1-452.74-122.805Z" transform="translate(457.337 124.04)" fill="#424753"/>
  </g>
  <g id="Group_1664" data-name="Group 1664" transform="translate(11.344 14.225)">
    <path id="Path_3119" data-name="Path 3119" d="M-557.116-41.674a.616.616,0,0,1-.437-.181l-2.842-2.842-.979.979a.616.616,0,0,1-.6.158.617.617,0,0,1-.433-.449L-564-50.561a.617.617,0,0,1,.164-.582.617.617,0,0,1,.582-.163l6.552,1.586a.618.618,0,0,1,.449.433.618.618,0,0,1-.158.6l-.979.979,2.842,2.842a.618.618,0,0,1,0,.873l-2.135,2.135A.616.616,0,0,1-557.116-41.674Zm-3.279-4.514a.616.616,0,0,1,.437.181l2.842,2.842,1.261-1.261-2.842-2.842a.617.617,0,0,1,0-.873l.638-.638-4.5-1.089,1.089,4.5.638-.638A.616.616,0,0,1-560.394-46.187Z" transform="translate(564.014 51.324)" fill="#424753"/>
  </g>
</svg>
