<svg id="Group_1654" data-name="Group 1654" xmlns="http://www.w3.org/2000/svg" width="25" height="25.12" viewBox="0 0 25 25.12">
  <path id="Path_3110" data-name="Path 3110" d="M171.735,125.62l1.766-6.45a12.448,12.448,0,1,1,10.787,6.235h-.006a12.441,12.441,0,0,1-5.949-1.515Zm6.9-3.985.377.224a10.316,10.316,0,0,0,5.266,1.442h0a10.347,10.347,0,1,0-8.764-4.848l.246.391-1.045,3.818Z" transform="translate(-171.735 -100.5)" fill="#424753"/>
  <path id="Path_3111" data-name="Path 3111" d="M192.364,117.274c-.08-.127-.293-.2-.612-.354s-1.888-.883-2.18-.985-.506-.151-.718.152-.824.985-1.011,1.187-.372.227-.691.076a8.816,8.816,0,0,1-2.567-1.5,9.225,9.225,0,0,1-1.776-2.1c-.186-.3-.02-.467.14-.618.143-.136.319-.354.479-.53a2.065,2.065,0,0,0,.319-.505.535.535,0,0,0-.027-.531c-.08-.151-.718-1.641-.984-2.248-.259-.59-.522-.511-.718-.52s-.4-.01-.611-.01a1.2,1.2,0,0,0-.851.378,3.327,3.327,0,0,0-1.117,2.526,5.741,5.741,0,0,0,1.3,3.132,13.972,13.972,0,0,0,5.452,4.571,18.978,18.978,0,0,0,1.819.637,4.6,4.6,0,0,0,2.01.12,3.29,3.29,0,0,0,2.154-1.44A2.411,2.411,0,0,0,192.364,117.274Z" transform="translate(-173.379 -101.933)" fill="#424753" fill-rule="evenodd"/>
</svg>
