<svg xmlns="http://www.w3.org/2000/svg" width="16.064" height="16.064" viewBox="0 0 16.064 16.064">
  <g id="Badge" transform="translate(-254.167 -156.167)">
    <path id="Path_3238" data-name="Path 3238" d="M262.363,157.128l.905-.893a.235.235,0,0,1,.373.059l.585,1.129a.235.235,0,0,0,.314.1l1.137-.57a.235.235,0,0,1,.337.172l.207,1.255a.235.235,0,0,0,.267.194l1.257-.191a.235.235,0,0,1,.267.267l-.191,1.257a.235.235,0,0,0,.194.267l1.255.207a.235.235,0,0,1,.172.337l-.57,1.137a.235.235,0,0,0,.1.314l1.129.585a.235.235,0,0,1,.059.373l-.893.905a.235.235,0,0,0,0,.33l.893.905a.235.235,0,0,1-.059.373l-1.129.585a.235.235,0,0,0-.1.314l.57,1.137a.235.235,0,0,1-.172.337l-1.255.207a.235.235,0,0,0-.194.267l.191,1.257a.235.235,0,0,1-.267.267l-1.257-.191a.235.235,0,0,0-.267.194l-.207,1.255a.235.235,0,0,1-.337.172l-1.137-.57a.235.235,0,0,0-.314.1l-.585,1.129a.235.235,0,0,1-.373.059l-.905-.893a.235.235,0,0,0-.33,0l-.905.893a.235.235,0,0,1-.373-.059l-.585-1.129a.235.235,0,0,0-.314-.1l-1.137.57a.235.235,0,0,1-.337-.172l-.207-1.255a.235.235,0,0,0-.267-.194l-1.257.191a.235.235,0,0,1-.267-.267l.191-1.257a.235.235,0,0,0-.194-.267l-1.255-.207a.235.235,0,0,1-.172-.337l.57-1.137a.235.235,0,0,0-.1-.314l-1.129-.585a.235.235,0,0,1-.059-.373l.893-.905a.235.235,0,0,0,0-.33l-.893-.905a.235.235,0,0,1,.059-.373l1.129-.585a.235.235,0,0,0,.1-.314l-.57-1.137a.235.235,0,0,1,.172-.337l1.255-.207a.235.235,0,0,0,.194-.267l-.191-1.257a.235.235,0,0,1,.267-.267l1.257.191a.235.235,0,0,0,.267-.194l.207-1.255a.235.235,0,0,1,.337-.172l1.137.57a.235.235,0,0,0,.314-.1l.585-1.129a.235.235,0,0,1,.373-.059l.905.893A.235.235,0,0,0,262.363,157.128Z" fill="#5586ff"/>
    <path id="Path_3239" data-name="Path 3239" d="M311.4,212.725a.694.694,0,0,0-.977.059l-3.1,3.5-.989-.989a.628.628,0,0,0-.886,0l-.093.093a.628.628,0,0,0,0,.886l1.545,1.545a.626.626,0,0,0,.845.033.675.675,0,0,0,.148-.122l3.568-4.028A.694.694,0,0,0,311.4,212.725Z" transform="translate(-46.207 -51.078)" fill="#fff"/>
  </g>
</svg>
