<svg xmlns="http://www.w3.org/2000/svg" width="12.888" height="25" viewBox="0 0 12.888 25">
  <path id="Icon_ionic-ios-attach" data-name="Icon ionic-ios-attach" d="M21.895,9.453a.871.871,0,0,0-.87.87V21.169A4.5,4.5,0,0,1,19.8,24.243a4.416,4.416,0,0,1-3.1,1.322h-.759a4.336,4.336,0,0,1-3.057-1.372,4.479,4.479,0,0,1-1.333-3.08V7.121a3.032,3.032,0,0,1,.965-2.2A3.32,3.32,0,0,1,14.8,4.007a3.105,3.105,0,0,1,3.135,3.113V20.187a1.763,1.763,0,0,1-1.618,1.8,1.715,1.715,0,0,1-1.573-1.8V12.733a.87.87,0,0,0-1.741,0v7.454A3.347,3.347,0,0,0,18.7,22.7a3.524,3.524,0,0,0,.976-2.511V7.121A4.876,4.876,0,0,0,14.787,2.25a4.9,4.9,0,0,0-3.47,1.423A4.814,4.814,0,0,0,9.872,7.126V21.119a6.235,6.235,0,0,0,1.819,4.352,6.031,6.031,0,0,0,4.246,1.78H16.7a6.094,6.094,0,0,0,4.235-1.791,6.267,6.267,0,0,0,1.333-1.93,5.841,5.841,0,0,0,.5-2.349V10.323A.863.863,0,0,0,21.895,9.453Z" transform="translate(-9.872 -2.25)" fill="#8ab9fd"/>
</svg>
