<svg xmlns="http://www.w3.org/2000/svg" width="20.25" height="18" viewBox="0 0 20.25 18">
    <path id="Icon_metro-shop" data-name="Icon metro-shop" d="M9.877,10.534l.89-5.906H6.138L4.2,9.69a1.775,1.775,0,0,0-.091.563c0,1.242,1.294,2.25,2.892,2.25a2.744,2.744,0,0,0,2.871-1.969ZM14.238,12.5c1.6,0,2.892-1.008,2.892-2.25,0-.046,0-.092-.006-.136l-.573-5.489H11.924l-.574,5.484c0,.046,0,.092,0,.141,0,1.242,1.295,2.25,2.892,2.25Zm5.625,1.177v4.448H8.613V13.686a4.734,4.734,0,0,1-1.608.279,4.638,4.638,0,0,1-.642-.055v7.143a1.578,1.578,0,0,0,1.573,1.575h12.6a1.58,1.58,0,0,0,1.575-1.575V13.911a4.834,4.834,0,0,1-.642.055A4.675,4.675,0,0,1,19.863,13.679Zm4.41-3.989L22.337,4.627H17.71l.889,5.9A2.738,2.738,0,0,0,21.471,12.5c1.6,0,2.892-1.008,2.892-2.25a1.807,1.807,0,0,0-.09-.563Z" transform="translate(-4.113 -4.627)" fill="#0F6EF4"/>
    </svg>