<svg xmlns="http://www.w3.org/2000/svg" width="29.101" height="9.287" viewBox="0 0 29.101 9.287">
  <g id="Group_5926" data-name="Group 5926" transform="translate(-104.266 -64.447)">
    <path id="Path_7061" data-name="Path 7061" d="M116.479,65.2h11.069a1.113,1.113,0,0,1,.792,1.908L122.8,72.65a1.112,1.112,0,0,1-1.574,0l0,0-5.542-5.541a1.113,1.113,0,0,1,.8-1.9Z" transform="translate(4.043 0)" fill="none" stroke="#54585d" stroke-width="1.3"/>
    <path id="Path_7062" data-name="Path 7062" d="M118.015,71.069l-5.537-5.538a1.114,1.114,0,0,0-1.575,0l0,0-5.542,5.538a1.113,1.113,0,0,0,.8,1.908h11.069a1.114,1.114,0,0,0,.79-1.908Z" transform="translate(0)" fill="none" stroke="#54585d" stroke-width="1.3"/>
  </g>
</svg>
