<?xml version="1.0" encoding="utf-8"?>
<!-- Generator: Adobe Illustrator 23.0.2, SVG Export Plug-In . SVG Version: 6.00 Build 0)  -->
<svg version="1.1" id="Layer_1" xmlns="http://www.w3.org/2000/svg" xmlns:xlink="http://www.w3.org/1999/xlink" x="0px" y="0px"
	 viewBox="0 0 199.499 312.0312" enable-background="new 0 0 199.499 312.0312" xml:space="preserve">
<g>
	<path d="M179.75,50h-160v81.144c3.3857-2.6674,6.8379-4.7353,10.2304-6.0771c0.587-0.2153,1.3018-0.4683,2.0977-0.6856
		c1.249-0.5551,2.5684-0.8359,3.9209-0.8359H40v-7.4639c-2.3321-3.749-3.6836-8.1679-3.6836-12.8984
		c0-4.7305,1.3515-9.1494,3.6836-12.8989V76.667c0-2.209,1.791-4,4-4h108.75c2.209,0,4,1.791,4,4v112c0,2.209-1.791,4-4,4H84.3633
		v106.334H179.75V50z"/>
	<rect x="55.0019" y="211.3975" width="0.6328" height="87.6035"/>
	<path d="M22.4209,160.6909c0.0039,0.6519,0.1015,1.0762,0.3691,1.625c0.3721,0.7446,1.0391,1.5108,2.0283,2.3257
		c0.418,0.3481,0.9053,0.7026,1.4522,1.0552v-13.106c-0.8994,1.1167-1.6592,2.2202-2.2393,3.2651
		C23.0058,157.6582,22.4062,159.4604,22.4209,160.6909z"/>
	<path d="M26.2705,187.6831c-2.3721-0.8418-4.5244-1.7539-6.5205-2.7456V299.001h6.5205V187.6831z"/>
	<path d="M82.8613,92.5h51.0273v11H85.3095c-0.0586,4.5762-1.375,8.853-3.624,12.5h22.0108v35.25h-0.3877
		c0.539,0.3657,1.0839,0.7217,1.6396,1.0537c3.8731,2.3296,7.5215,3.4907,11.1416,3.5703l0.7363-4.124h-4.6064V145h23.373v6.75
		h-4.6064l0.7266,4.0698c1.7793,1.1719,3.1865,2.9004,3.9316,4.9976c1.8447,5.1938-0.8799,10.9233-6.0713,12.7719
		c-4.2949,1.5284-8.6933,2.3028-13.0703,2.3028c-7.4268,0-14.7793-2.1719-21.8721-6.4561
		c-3.5517-2.144-6.9394-4.7251-10.2675-7.8252v21.0557H146.75V82.6684H74.1865C77.8935,85.0933,80.9091,88.4902,82.8613,92.5z
		 M135.5927,140h-23.373v-24h23.373V140z"/>
	<path d="M62.9863,14.9292h-0.0527c-0.2627,1.0522-0.5254,2.394-0.8155,3.4199l-1.0517,3.7617h3.9189l-1.1045-3.7617
		C63.5654,17.2969,63.25,15.9814,62.9863,14.9292z"/>
	<path d="M45.9101,21.8213H44.542v4.9985c0.3955,0.0523,0.8681,0.0523,1.5527,0.0523c1.8144,0,3.4199-0.71,3.4199-2.5777
		C49.5146,22.5317,47.9091,21.8213,45.9101,21.8213z"/>
	<path d="M199.499,0H0v40.001h199.499V0z M51.8818,28.2402c-1.2891,1.0259-3.4463,1.6045-6.9707,1.6045
		c-1.9736,0-3.4463-0.1313-4.3408-0.2632V12.167c1.0517-0.1841,3.1562-0.3682,5.1826-0.3682c2.4463,0,3.9453,0.2368,5.2607,0.9995
		c1.2364,0.6577,2.1045,1.8677,2.1045,3.4991c0,1.5517-0.9209,2.9985-2.9199,3.7617v0.0522
		c2.0254,0.5264,3.5254,2.0786,3.5254,4.3408C53.7236,26.083,52.9863,27.3457,51.8818,28.2402z M66.9326,29.6606l-1.3682-4.5507
		h-5.0771l-1.2627,4.5507h-4.1299l5.3926-17.7304h5.2617l5.5234,17.7304H66.9326z M88.2959,29.6606h-4.209l-3.7881-6.8398
		c-1.0527-1.8936-2.2363-4.1826-3.0781-6.2608h-0.1045c0.1308,2.3677,0.1836,4.8667,0.1836,7.7603v5.3403h-3.6826V11.9302h4.6826
		l3.6826,6.4975c1.0527,1.8677,2.0781,4.0777,2.8935,6.0767h0.0528c-0.2363-2.3408-0.3154-4.7349-0.3154-7.418v-5.1562h3.6826
		V29.6606z M101.6113,29.6606l-4.3672-7.6552l-1.5,1.8681v5.7871h-3.9717V11.9302h3.9717v7.8393h0.0527
		c0.3946-0.6841,0.8155-1.3154,1.2364-1.9468l3.999-5.8925h4.9453l-5.8662,7.5498l6.1553,10.1806H101.6113z M123.8174,29.6606
		l-1.3682-4.5507h-5.0772l-1.2627,4.5507h-4.1298l5.3925-17.7304h5.2618l5.5234,17.7304H123.8174z M140.6045,15.2974h-4.8409
		v14.3632h-3.998V15.2974h-4.7881v-3.3672h13.627V15.2974z M157.917,29.6606l-0.2901-6.7871
		c-0.0791-2.1308-0.1572-4.7085-0.1572-7.2866h-0.0527c-0.5791,2.2622-1.3155,4.7876-1.9991,6.8657l-2.1572,6.9185h-3.1308
		l-1.8936-6.8394c-0.5791-2.1045-1.1582-4.6299-1.6055-6.9448h-0.0527c-0.0781,2.394-0.1836,5.1294-0.2891,7.3394l-0.3418,6.7343
		h-3.7089l1.1308-17.7304h5.3399l1.7363,5.9189c0.5791,2.0518,1.1055,4.2617,1.5,6.3399h0.1055
		c0.4726-2.0518,1.0781-4.3931,1.6835-6.3663l1.8672-5.8925h5.2618l0.9462,17.7304H157.917z"/>
	<path d="M49.0937,16.7705c0-1.3413-1.0263-2.0518-2.8418-2.0518c-0.8945,0-1.3935,0.0528-1.7099,0.105v4.1304h1.3154
		C47.9883,18.9541,49.0937,18.0859,49.0937,16.7705z"/>
	<path d="M119.8711,14.9292h-0.0528c-0.2627,1.0522-0.5254,2.394-0.8154,3.4199l-1.0518,3.7617h3.919l-1.1045-3.7617
		C120.4502,17.2969,120.1347,15.9814,119.8711,14.9292z"/>
	<polygon points="133.5937,147 114.2187,147 114.2187,149.7505 117.1826,149.7505 117.4062,148.5 130.4062,148.5 130.6299,149.7505 
		133.5937,149.7505 	"/>
	<rect x="114.2187" y="118.001" width="19.375" height="19.9995"/>
	<path d="M74.6347,123.5454c1.1075,0,2.2032,0.1943,3.2647,0.5742c2.7392,0.7105,5.0498,2.543,6.3545,5.0435l0.289,0.5234
		c0.2364,0.4199,0.6016,1.0576,1.0909,1.8574c0.9052,1.4878,2.3935,3.8052,4.3418,6.4073
		c2.1015,2.8227,5.9101,7.4785,10.6406,11.2988h1.0791v-31.2485H80.3095c-1.6425,2.1552-3.6328,4.0322-5.8877,5.5439H74.6347z"/>
	<path d="M51.2431,123.5454h19.1465c7.6387-3.5972,12.9268-11.3608,12.9268-20.3633c0-12.4267-10.0733-22.5-22.5-22.5
		c-12.4258,0-22.5,10.0733-22.5,22.5C38.3164,112.1846,43.6054,119.9482,51.2431,123.5454z"/>
	<path d="M82.3633,182.7285v-25.917c3.7011,3.8955,8.1074,7.7774,13.3017,10.9141c5.8926,3.5571,12.9453,6.165,20.8203,6.165
		c0.0059,0,0.0127,0,0.0186,0c4.0254,0,8.2148-0.6977,12.3974-2.1865c4.1621-1.48,6.3379-6.0527,4.8584-10.2168
		c-1.4785-4.1641-6.0537-6.3379-10.2158-4.8599c-2.5322,0.896-4.8389,1.2608-7.0586,1.2627c-4.2969,0-8.4668-1.4062-12.5615-3.8686
		c-6.123-3.6563-11.71-9.7154-15.5479-14.8726c-1.9287-2.5742-3.4404-4.9062-4.4501-6.5615
		c-0.504-0.8262-0.8819-1.4839-1.126-1.9204c-0.1221-0.2173-0.211-0.3799-0.2637-0.4766c-0.0547-0.0991-0.0547-0.1035-0.0547-0.1035
		c-1.1064-2.1196-3.0312-3.5283-5.1826-4.0586c-0.832-0.3061-1.7266-0.4814-2.6641-0.4814H36c-1.1651,0-2.2657,0.2651-3.2559,0.726
		c-0.7041,0.1875-1.3682,0.4126-2.0273,0.6538c-5.501,2.1763-11.1768,6.3331-16.4102,11.9717
		c-2.5713,2.8272-4.9414,6.022-6.7676,9.6363c-1.8095,3.6015-3.1093,7.6894-3.1191,12.1801
		c-0.0068,3.1617,0.6963,6.4981,2.2363,9.5845c2.3106,4.6636,6.3184,8.5513,11.584,11.5752
		c2.9072,1.6699,6.2393,3.1182,10.0313,4.3818V299.668c0,6.83,5.5371,12.3632,12.3632,12.3632
		C47.4629,312.0312,53,306.498,53,299.668v-90.2715h4.6347v90.2715c0,6.83,5.5371,12.3632,12.3633,12.3632
		c6.8281,0,12.3653-5.5332,12.3653-12.3632V182.7285z M23.5468,166.1865c-1.4238-1.1709-2.1416-2.166-2.5546-2.9946
		c-0.4073-0.8369-0.5635-1.5567-0.5713-2.4771c-0.0176-1.4541,0.5507-3.5283,1.8632-5.832c1.3897-2.499,3.6104-5.1318,5.9874-7.3638
		v21.5552C26.206,168.0918,24.6445,167.103,23.5468,166.1865z"/>
</g>
</svg>
