<svg id="Group_1794" data-name="Group 1794" xmlns="http://www.w3.org/2000/svg" width="12.222" height="14.581" viewBox="0 0 12.222 14.581">
  <path id="Path_3012" data-name="Path 3012" d="M280.269,404.87c-.2.188-.39.362-.574.545a3.088,3.088,0,0,0-.912,1.6,3.355,3.355,0,0,0,1.229,3.415,1.954,1.954,0,0,0,.682.353c-.042.122-.079.242-.125.359a8.714,8.714,0,0,1-1.641,2.715,3.838,3.838,0,0,1-.4.37,1.812,1.812,0,0,1-1.779.377c-.347-.106-.691-.223-1.038-.326a2.838,2.838,0,0,0-1.16-.132,4.533,4.533,0,0,0-1.012.283,7.309,7.309,0,0,1-.806.252,1.6,1.6,0,0,1-1.131-.164,3.051,3.051,0,0,1-.82-.642,7.625,7.625,0,0,1-1.071-1.525,9.51,9.51,0,0,1-1.09-2.853,6.76,6.76,0,0,1,.131-3.368,3.993,3.993,0,0,1,1.392-2.037,2.967,2.967,0,0,1,2.11-.576,9.166,9.166,0,0,1,1.644.358c.189.051.381.092.572.131a1.9,1.9,0,0,0,.928-.1c.379-.109.752-.239,1.133-.342a3.427,3.427,0,0,1,2.286.129,3.653,3.653,0,0,1,1.311,1.009C280.178,404.76,280.223,404.815,280.269,404.87Z" transform="translate(-268.473 -400.141)"/>
  <path id="Path_3013" data-name="Path 3013" d="M295,392.43a3.356,3.356,0,0,1,2.875-3.54,1.823,1.823,0,0,1,.038.234,3.31,3.31,0,0,1-.59,1.961,3.731,3.731,0,0,1-.685.763,2.179,2.179,0,0,1-1.281.545C295.236,392.4,295.12,392.416,295,392.43Z" transform="translate(-288.995 -388.89)"/>
</svg>
