<svg xmlns="http://www.w3.org/2000/svg" width="25.043" height="14.233" viewBox="0 0 25.043 14.233">
  <g id="Icon_ionic-ios-videocam" data-name="Icon ionic-ios-videocam" transform="translate(0.75 -9)">
    <path id="Path_7051" data-name="Path 7051" d="M30.214,10.8a.95.95,0,0,0-.517.15l-4.809,3.036a.476.476,0,0,0-.222.4v4.225a.476.476,0,0,0,.222.4L29.7,22.047a1,1,0,0,0,.517.15h1.156a.473.473,0,0,0,.478-.473V11.273a.477.477,0,0,0-.478-.473Z" transform="translate(-7.556 -0.377)" fill="#0f6ef4"/>
    <path id="Path_7052" data-name="Path 7052" d="M15.676,23.233H5.113A2.872,2.872,0,0,1,2.25,20.375V11.858A2.867,2.867,0,0,1,5.108,9H15.671a2.867,2.867,0,0,1,2.858,2.858v8.512A2.86,2.86,0,0,1,15.676,23.233Z" transform="translate(-3)" fill="#0f6ef4"/>
  </g>
</svg>
