<svg xmlns="http://www.w3.org/2000/svg" width="20.86" height="23.126" viewBox="0 0 20.86 23.126">
    <g id="Icon_feather-box" data-name="Icon feather-box" transform="translate(-3.75 -2.223)">
      <path id="Path_6382" data-name="Path 6382" d="M23.861,18.059v-8.6a2.151,2.151,0,0,0-1.076-1.861l-7.529-4.3a2.151,2.151,0,0,0-2.151,0l-7.529,4.3A2.151,2.151,0,0,0,4.5,9.454v8.6A2.151,2.151,0,0,0,5.576,19.92l7.529,4.3a2.151,2.151,0,0,0,2.151,0l7.529-4.3A2.151,2.151,0,0,0,23.861,18.059Z" transform="translate(0 0)" fill="#fff" stroke="#424753" stroke-linecap="round" stroke-linejoin="round" stroke-width="1.5"/>
      <path id="Path_6383" data-name="Path 6383" d="M4.905,10.44l9.39,5.432,9.39-5.432" transform="translate(-0.115 -2.104)" fill="#fff" stroke="#424753" stroke-linecap="round" stroke-linejoin="round" stroke-width="1.5"/>
      <path id="Path_6384" data-name="Path 6384" d="M18,28.842V18" transform="translate(-3.82 -4.243)" fill="#fff" stroke="#424753" stroke-linecap="round" stroke-linejoin="round" stroke-width="1.5"/>
    </g>
  </svg>
  